<?xml version="1.0" encoding="utf-8"?>
<!-- Generator: Adobe Illustrator 27.5.0, SVG Export Plug-In . SVG Version: 6.00 Build 0)  -->
<svg version="1.1" xmlns="http://www.w3.org/2000/svg" xmlns:xlink="http://www.w3.org/1999/xlink" x="0px" y="0px"
	 viewBox="0 0 750 500" style="enable-background:new 0 0 750 500;" xml:space="preserve">
<g id="BACKGROUND">
	<rect style="fill:#FAE5CD;" width="750" height="500"/>
</g>
<g id="OBJECTS">
	<path style="fill:#FAD9B9;" d="M692.661,198.725c-18.235-67.6-114.466-110.315-201.17-26.259
		c-96.27,93.33-151.871,30.825-221.991,4.579C182.402,144.445,38.875,151.532,78.967,449h582.557
		C704.75,332.639,708.25,256.515,692.661,198.725z"/>
	<rect y="449" style="fill:#1F160F;" width="750" height="1"/>
	<g>
		<g>
			<g>
				<path style="fill:#E0B17B;" d="M675.48,404.295c-0.011,0-0.022-0.001-0.033-0.002c-0.162-0.019-0.278-0.165-0.26-0.326
					c3.116-27.246,20.732-57.933,20.91-58.239c0.081-0.143,0.262-0.19,0.402-0.107c0.141,0.081,0.188,0.262,0.107,0.402
					c-0.177,0.306-17.733,30.889-20.834,58.011C675.756,404.184,675.629,404.295,675.48,404.295z"/>
				<path style="fill:#E0B17B;" d="M677.84,391.546c-0.007,0-0.013-0.001-0.02-0.001c-0.163-0.011-0.285-0.151-0.274-0.313
					c2.253-33.143-17.856-71.271-18.059-71.651c-0.076-0.144-0.023-0.322,0.121-0.398c0.143-0.077,0.322-0.023,0.398,0.121
					c0.204,0.383,20.392,38.656,18.127,71.968C678.123,391.427,677.994,391.546,677.84,391.546z"/>
				<path style="fill:#E0B17B;" d="M670.715,346.17c-0.032,0-0.064-0.006-0.097-0.017c-0.153-0.054-0.234-0.221-0.182-0.375
					c7.202-20.776,6.149-49.157,6.139-49.441c-0.007-0.162,0.119-0.3,0.282-0.306c0.171-0.003,0.3,0.12,0.306,0.282
					c0.012,0.285,1.068,28.777-6.17,49.658C670.951,346.093,670.837,346.17,670.715,346.17z"/>
				<path style="fill:#E0B17B;" d="M685.916,368.145c-5.385,7.137-1.916,10.105,6.334,11.824c5.402,1.126,5.689,6.904,5.689,6.904
					C709.906,369.094,688.761,364.375,685.916,368.145z"/>
				<path style="fill:#E0B17B;" d="M692.454,353.201c-8.829-5.826,1.796-11.951,1.358-20.525c0,0,4.469-0.551,7.052,2.614
					C706.824,342.59,696.094,355.602,692.454,353.201z"/>
				<path style="fill:#E0B17B;" d="M673.891,363.89c3.82-0.328,4.128,4.102,1.59,5.508c-2.61,1.446-4.674,2.48-5.717,4.827
					c-1.49,3.353-5.693,5.86-5.693,5.86c-0.328-1.734-2.999-1.805-3.281-5.602c-0.282-3.797,2.086-8.453,5.13-10.466
					C671.5,360.328,673.891,363.89,673.891,363.89z"/>
				<path style="fill:#E0B17B;" d="M666.066,335.969c2.799,0,3.32,3.188,1.75,4.406c-1.628,1.264-5.31,0.783-5.911,4.527
					c-1.214,7.567-7.871,8.224-7.871,8.224c-3.233-1.97-4.576-10.442-1.494-15.068C657.472,330.656,666.066,335.969,666.066,335.969
					z"/>
				<path style="fill:#E0B17B;" d="M676.145,318.179c-1.07-12.32,14.855-10.82,15.933-13.351
					C694.844,314.109,687.484,323.845,676.145,318.179z"/>
				<path style="fill:#E0B17B;" d="M662.174,324.374c-16.268-4.932-6.705-22.265-6.705-22.265
					C672.859,309.516,662.174,324.374,662.174,324.374z"/>
				<path style="fill:#E0B17B;" d="M676.935,304.359c-14.669-10.751-3.888-17.672-4.296-20.966
					C683.641,282.844,683.903,296.013,676.935,304.359z"/>
			</g>
			<g>
				<polygon style="fill:#E0B17B;" points="696.524,449 661.524,449 656.024,400.824 702.024,400.824 				"/>
				<g>
					<defs>
						<path id="SVGID_1_" d="M696.524,449h-35l-5.5-48.176h46L696.524,449z"/>
					</defs>
					<clipPath id="SVGID_00000071545958955926315590000014321461489806208676_">
						<use xlink:href="#SVGID_1_"  style="overflow:visible;"/>
					</clipPath>
					<g style="clip-path:url(#SVGID_00000071545958955926315590000014321461489806208676_);">
						<path style="fill:#FAD9B9;" d="M707.625,422.875H653.25c-0.163,0-0.295-0.132-0.295-0.295c0-0.163,0.132-0.295,0.295-0.295
							h54.375c0.163,0,0.295,0.132,0.295,0.295C707.92,422.743,707.788,422.875,707.625,422.875z"/>
						<path style="fill:#FAD9B9;" d="M707.625,428.055H653.25c-0.163,0-0.295-0.132-0.295-0.295c0-0.163,0.132-0.295,0.295-0.295
							h54.375c0.163,0,0.295,0.132,0.295,0.295C707.92,427.923,707.788,428.055,707.625,428.055z"/>
					</g>
				</g>
			</g>
		</g>
		<g>
			<path style="fill:#E0B17B;" d="M86.182,344.559c0,0,11.443-39.559,1.294-64.543c0,0-4.226,6.234-5.549,27.109
				c0,0-0.927-42.25-15.927-59.694c-5.75,15.631,5.722,53.129,4.288,73.841c0,0-4.538-24.647-20.835-30.615
				c0,0,13.422,22.343,19.272,52.502c0,0-14.412-28.472-29.85-29.795c0,0,30.875,34.386,31.93,72.136h18.32
				c0,0-0.125-34.625,13.681-69.034C102.806,316.466,92.625,323,86.182,344.559z"/>
			<polygon style="fill:#E0B17B;" points="95.767,449 62.166,449 56.683,380.895 101.25,380.895 			"/>
			<path style="fill:#FAD9B9;" d="M89.254,381.19H70.187c-0.163,0-0.294-0.132-0.294-0.295s0.132-0.295,0.294-0.295h19.067
				c0.163,0,0.294,0.132,0.294,0.295S89.417,381.19,89.254,381.19z"/>
			<g>
				<polygon style="fill:#FAD9B9;" points="98.524,414.75 98.841,410.813 59.092,410.813 59.409,414.75 				"/>
				<polygon style="fill:#FAD9B9;" points="99.108,407.5 99.319,404.875 58.614,404.875 58.825,407.5 				"/>
			</g>
		</g>
	</g>
	<g>
		<g>
			<path style="fill:#E0B17B;" d="M443.305,132.655c-1.315,0-2.628-0.064-3.939-0.195c-10.857-1.094-20.458-6.865-28.535-17.153
				c-25.548-32.542-85.351-75.599-198.843,1.656c-0.134,0.091-0.317,0.056-0.409-0.078c-0.091-0.134-0.057-0.317,0.078-0.409
				c113.889-77.523,173.964-34.235,199.637-1.532c7.975,10.157,17.439,15.854,28.132,16.931
				c24.558,2.472,50.367-19.475,64.239-31.267c1.331-1.131,2.692-2.32,4.103-3.55c17.601-15.356,41.705-36.388,105.039-36.871
				c0,0,0.001,0,0.002,0c0.162,0,0.293,0.13,0.295,0.292c0.001,0.163-0.13,0.296-0.293,0.297
				c-63.115,0.481-87.125,21.43-104.656,36.726c-1.411,1.232-2.775,2.422-4.108,3.555
				C490.844,112.278,466.869,132.654,443.305,132.655z"/>
			<path style="fill:#E0B17B;" d="M443.867,141.55c-13.342,0.001-24.968-5.402-34.711-16.165
				c-26.943-29.766-86.639-68.254-183.724,8.417c-0.128,0.102-0.313,0.08-0.414-0.048c-0.101-0.128-0.079-0.313,0.048-0.414
				c39.85-31.471,77.192-46.655,110.965-45.13c27.859,1.257,52.608,13.632,73.561,36.779c13.778,15.222,31.38,19.587,52.315,12.977
				c13.727-4.335,28.615-13.273,44.255-26.566c2.24-1.904,4.54-4.029,6.975-6.28c16.986-15.696,40.25-37.193,99.661-38.689
				c0.003,0,0.006,0,0.008,0c0.159,0,0.29,0.127,0.294,0.287c0.005,0.162-0.124,0.298-0.286,0.302
				c-59.19,1.49-82.359,22.9-99.277,38.533c-2.439,2.254-4.744,4.384-6.994,6.296c-15.698,13.345-30.657,22.321-44.459,26.679
				C455.703,140.544,449.625,141.55,443.867,141.55z"/>
			<path style="fill:#E0B17B;" d="M233.868,149.034c-0.088,0-0.176-0.04-0.234-0.116c-0.099-0.129-0.074-0.314,0.055-0.413
				c39.454-30.116,75.405-45.557,106.852-45.894c26.095-0.288,48.551,9.665,66.757,29.561c13.947,15.242,32.582,19.622,55.388,13.03
				c18.757-5.423,36.343-17.08,47.941-25.376c3.488-2.496,7.084-5.364,10.891-8.401c18.283-14.586,43.322-34.563,91.266-38.748
				c0.18-0.005,0.306,0.107,0.318,0.268c0.015,0.162-0.105,0.305-0.268,0.319c-47.767,4.169-71.71,23.272-90.949,38.621
				c-3.813,3.042-7.414,5.915-10.916,8.42c-11.632,8.322-29.275,20.015-48.119,25.463c-23.037,6.662-41.875,2.221-55.984-13.199
				c-18.088-19.767-40.397-29.648-66.317-29.37c-31.318,0.336-67.15,15.736-106.501,45.773
				C233.993,149.015,233.93,149.034,233.868,149.034z"/>
		</g>
		<g>
			<path style="fill:#1F160F;" d="M280.689,99.076c-4.416,0-4.887,5.729-1.215,7.564c4.273,2.136,10.617-0.157,11.211-10.823
				c0.525-9.425-2.036-37.236,4.149-40.96c1.976-1.19,6.027,2.278,3.939,7.567c-2.501,6.335-5.742,9.508-11.578,12.572
				c-11.422,5.997-10.114,19.178-0.108,21.21c6.827,1.386,11.986-2.464,11.525-8.686c-0.589-7.94-14.276-9.065-12.683,0.685
				c0.313-8.844,11.002-6.805,11.531-0.656c0.656,7.625-7.156,9.156-10.266,7.641c-7.312-3.564-7.125-14.578,0.188-18.844
				s11.203-8.984,12.328-13.5c1.503-6.031-1.813-10.484-5.25-9.386c-5.648,1.804-5.438,10.715-5.25,18.34
				c0.116,4.739,1.42,21.366,0.188,26.5c-1.875,7.813-6.837,8.868-9.188,7.516C276.273,103.549,278.182,99.254,280.689,99.076z"/>
			<path style="fill:#1F160F;" d="M278.147,101.185c0.263-1.404,1.614-2.328,3.018-2.066c1.404,0.263,2.328,1.614,2.066,3.018
				c-0.263,1.404-1.614,2.329-3.018,2.066C278.809,103.94,277.884,102.589,278.147,101.185z"/>
		</g>
		<g>
			
				<rect x="333.722" y="76.714" transform="matrix(0.242 -0.9703 0.9703 0.242 184.885 391.0929)" style="fill:#E0B17B;" width="18.065" height="1"/>
			<path style="fill:#E0B17B;" d="M341.131,85.544c-0.152,4.629-9.817,3.781-9.804,0.69
				C331.346,81.368,341.275,81.142,341.131,85.544z"/>
			<path style="fill:#E0B17B;" d="M345.135,65.857c-3.575,7.249,6.775,6.976,4.76,14.993
				C354.878,72.973,344.009,70.761,345.135,65.857z"/>
		</g>
		<g>
			
				<rect x="500.255" y="177.279" transform="matrix(0.2928 -0.9562 0.9562 0.2928 190.184 612.6951)" style="fill:#E0B17B;" width="18.065" height="1"/>
			<path style="fill:#E0B17B;" d="M507.227,186.012c-0.396,4.615-10.003,3.258-9.827,0.172
				C497.676,181.326,507.603,181.624,507.227,186.012z"/>
			<path style="fill:#E0B17B;" d="M512.263,166.563c-3.953,7.051,6.397,7.324,3.963,15.223
				C521.618,174.183,510.88,171.402,512.263,166.563z"/>
		</g>
		<g>
			<rect x="550.336" y="56.867" style="fill:#1F160F;" width="1" height="18.066"/>
			<path style="fill:#1F160F;" d="M551.276,74.376c0.973,4.528-8.611,6.044-9.346,3.041
				C540.772,72.691,550.351,70.07,551.276,74.376z"/>
			<path style="fill:#1F160F;" d="M550.399,54.305c-1.715,7.899,8.261,5.13,8.246,13.396
				C561.574,58.852,550.492,59.336,550.399,54.305z"/>
		</g>
		<g>
			<rect x="170.149" y="56.128" style="fill:#E0B17B;" width="1" height="18.066"/>
			<path style="fill:#E0B17B;" d="M171.088,73.636c0.973,4.528-8.611,6.044-9.346,3.041
				C160.584,71.951,170.163,69.33,171.088,73.636z"/>
			<path style="fill:#E0B17B;" d="M170.211,53.565c-1.715,7.899,8.261,5.13,8.245,13.396
				C181.386,58.112,170.304,58.596,170.211,53.565z"/>
		</g>
		<g>
			<path style="fill:#1F160F;" d="M672.051,149.099c-0.272-0.048-0.454-0.307-0.406-0.579l3.137-17.792
				c0.048-0.272,0.307-0.454,0.579-0.406c0.272,0.048,0.454,0.307,0.406,0.579l-3.137,17.791
				C672.582,148.966,672.323,149.147,672.051,149.099z"/>
			<path style="fill:#1F160F;" d="M672.667,148.135c0.172,4.628-9.529,4.457-9.732,1.372
				C662.615,144.651,672.504,143.734,672.667,148.135z"/>
		</g>
		<g>
			<path style="fill:#1F160F;" d="M395.032,127.828c-0.276,0-0.5-0.224-0.5-0.5v-18.066c0-0.276,0.224-0.5,0.5-0.5
				c0.276,0,0.5,0.224,0.5,0.5v18.066C395.532,127.605,395.308,127.828,395.032,127.828z"/>
			<path style="fill:#1F160F;" d="M395.471,126.771c0.973,4.528-8.611,6.044-9.346,3.041
				C384.967,125.086,394.546,122.465,395.471,126.771z"/>
		</g>
		<g>
			<path style="fill:#1F160F;" d="M104.135,140.115c2.545,3.87-5.841,8.749-7.613,6.216
				C93.732,142.344,101.715,136.435,104.135,140.115z"/>
			<polygon style="fill:#1F160F;" points="104.392,140.613 103.46,140.975 96.788,123.779 109.617,114.166 116.39,131.623 
				115.458,131.985 109.161,115.757 97.994,124.124 			"/>
			<path style="fill:#1F160F;" d="M116.133,131.125c2.545,3.87-5.841,8.749-7.613,6.216
				C105.73,133.354,113.713,127.445,116.133,131.125z"/>
			
				<rect x="97.177" y="122.263" transform="matrix(0.8003 -0.5996 0.5996 0.8003 -52.7077 87.2873)" style="fill:#1F160F;" width="14.992" height="1"/>
		</g>
		<g>
			<path style="fill:#1F160F;" d="M480.382,243.258c0.973,4.528-8.611,6.044-9.346,3.041
				C469.878,241.572,479.457,238.952,480.382,243.258z"/>
			<polygon style="fill:#1F160F;" points="480.442,243.815 479.442,243.815 479.442,225.37 494.879,221.049 494.879,239.774 
				493.879,239.774 493.879,222.367 480.442,226.128 			"/>
			<path style="fill:#1F160F;" d="M494.82,239.217c0.973,4.528-8.611,6.044-9.346,3.041
				C484.315,237.531,493.895,234.91,494.82,239.217z"/>
			
				<rect x="479.664" y="226.775" transform="matrix(0.963 -0.2695 0.2695 0.963 -43.2283 139.7132)" style="fill:#1F160F;" width="14.992" height="1"/>
		</g>
		<g>
			<path style="fill:#E0B17B;" d="M320.421,266.185c0.572,4.596-9.108,5.265-9.577,2.209
				C310.105,263.584,319.878,261.814,320.421,266.185z"/>
			<path style="fill:#E0B17B;" d="M320.432,266.745l-0.996-0.088l1.453-16.485c0.098-1.112,0.933-2.033,2.03-2.238l13.893-2.6
				l-1.644,18.653l-0.996-0.088l1.528-17.34l-12.597,2.358c-0.659,0.123-1.159,0.675-1.218,1.343L320.432,266.745z"/>
			<path style="fill:#E0B17B;" d="M335.158,263.427c0.571,4.596-9.108,5.264-9.577,2.209
				C324.842,260.826,334.614,259.056,335.158,263.427z"/>
			<path style="fill:#E0B17B;" d="M335.969,249.214l-14.737,2.758l0.155-1.756c0.079-0.893,0.743-1.625,1.624-1.79l13.245-2.479
				L335.969,249.214z"/>
		</g>
		<g>
			<path style="fill:#E0B17B;" d="M590.956,89.914c-0.577,4.596-10.123,2.863-9.826-0.214
				C581.597,84.856,591.505,85.544,590.956,89.914z"/>
			<path style="fill:#E0B17B;" d="M590.829,90.46l-0.944-0.33l5.463-15.621c0.369-1.054,1.404-1.741,2.518-1.669l14.106,0.897
				l-6.182,17.675l-0.944-0.33l5.746-16.431l-12.79-0.813c-0.669-0.043-1.29,0.369-1.511,1.002L590.829,90.46z"/>
			<path style="fill:#E0B17B;" d="M605.919,90.866c-0.577,4.595-10.123,2.863-9.826-0.215
				C596.559,85.807,606.467,86.495,605.919,90.866z"/>
			<path style="fill:#E0B17B;" d="M610.201,77.289l-14.962-0.951l0.582-1.664c0.296-0.847,1.12-1.393,2.015-1.336l13.448,0.855
				L610.201,77.289z"/>
		</g>
		<g>
			<path style="fill:#1F160F;" d="M477.92,130.892c0.973,4.528-8.611,6.044-9.346,3.041
				C467.415,129.207,476.995,126.586,477.92,130.892z"/>
			<path style="fill:#1F160F;" d="M477.979,131.449h-1v-16.549c0-1.116,0.751-2.106,1.826-2.408l13.611-3.81v18.725h-1v-17.406
				l-12.342,3.454c-0.645,0.181-1.096,0.775-1.096,1.445V131.449z"/>
			<path style="fill:#1F160F;" d="M492.357,126.851c0.973,4.528-8.611,6.044-9.346,3.041
				C481.853,125.166,491.432,122.545,492.357,126.851z"/>
			<polygon style="fill:#1F160F;" points="492.417,127.408 491.417,127.408 491.417,108.963 506.854,104.642 506.854,123.367 
				505.854,123.367 505.854,105.96 492.417,109.722 			"/>
			<path style="fill:#1F160F;" d="M506.795,122.81c0.973,4.528-8.611,6.044-9.346,3.041
				C496.29,121.125,505.87,118.504,506.795,122.81z"/>
			<rect x="505.854" y="105.301" style="fill:#1F160F;" width="1" height="18.066"/>
			<path style="fill:#1F160F;" d="M491.917,112.622l-14.438,4.041V114.9c0-0.897,0.597-1.684,1.461-1.926l12.977-3.632V112.622z"/>
			<polygon style="fill:#1F160F;" points="506.355,108.581 491.917,112.622 491.917,109.342 506.355,105.301 			"/>
		</g>
		<g>
			
				<rect x="222.29" y="113.777" transform="matrix(0.9611 -0.2763 0.2763 0.9611 -25.5509 66.3834)" style="fill:#E0B17B;" width="1" height="20.166"/>
			<path style="fill:#E0B17B;" d="M225.845,132.894c2.186,4.083-6.605,8.188-8.142,5.506
				C215.284,134.178,223.766,129.012,225.845,132.894z"/>
			<path style="fill:#E0B17B;" d="M218.874,111.828c0.535,8.065,9.357,2.647,11.626,10.595
				C230.87,113.11,220.354,116.638,218.874,111.828z"/>
			<path style="fill:#E0B17B;" d="M220.25,116.614c0.535,8.065,9.357,2.647,11.627,10.595
				C232.247,117.895,221.731,121.423,220.25,116.614z"/>
		</g>
	</g>
	<g>
		<g>
			<rect x="395.944" y="340.747" style="fill:#BF4E32;" width="55" height="10"/>
			<rect x="397.444" y="418.548" style="fill:#BF4E32;" width="52" height="2"/>
			<polygon style="fill:#BF4E32;" points="391.826,449 393.826,449 409.819,348.747 407.819,348.747 			"/>
			<polygon style="fill:#BF4E32;" points="455.062,449 453.062,449 437.07,348.747 439.07,348.747 			"/>
		</g>
		<g>
			<g>
				<g>
					<polygon style="fill:#BD6657;" points="322.134,440.444 339.678,440.444 340.101,436.006 345.687,422.58 327.125,422.58 
						322.281,434.625 					"/>
					<g>
						<path style="fill:#1F160F;" d="M290.807,449h48.596c2.241-4.583,0.698-12.994,0.698-12.994
							c-1.893,1.341-9.757,1.401-12.242-0.115c-1.524-0.93-3.508-2.749-4.852-2.36c-1.439,0.417-1.369,1.611-3.259,3.406
							c-1.889,1.796-20.248,3.87-23.092,4.464C292.671,442.233,290.48,444.185,290.807,449z"/>
						<path style="fill:#496099;" d="M290.844,446.938c-0.071,0.623-0.089,1.303-0.037,2.062h48.596
							c0.306-0.625,0.536-1.325,0.714-2.062H290.844z"/>
					</g>
				</g>
				<g>
					<polygon style="fill:#BD6657;" points="415.875,432.438 414.42,425.67 409.547,415.74 394.281,422.58 401.494,434.625 					"/>
					<path style="fill:#1F160F;" d="M419.59,437.61L396.74,449h-18.28c-0.33-4.81,1.86-6.77,5.85-7.6c0.97-0.21,3.76-0.58,7.09-1.05
						c2.76-2.08,4.91-3.9,5.22-4.77c0.89-2.45,0.29-3.49,1.39-4.5c1.03-0.95,3.62-0.21,5.4-0.05c2.9,0.24,9.91-3.32,11.01-5.36
						c0,0,4.68,6.23,5.13,11.24C419.58,437.14,419.59,437.38,419.59,437.61z"/>
					<path style="fill:#496099;" d="M419.55,436.91c-0.043-0.479-0.135-0.971-0.247-1.466L396.25,446.94h-17.754
						c-0.07,0.623-0.088,1.302-0.036,2.06h18.28l22.85-11.39C419.59,437.38,419.58,437.14,419.55,436.91z"/>
				</g>
				<g>
					<path style="fill:#496099;" d="M445.028,319l-38.682,2.025L403.914,329c0,0-52.368,22.514-55.453,26.444
						c-3.085,3.931-23.148,67.136-23.148,67.136c1.962,1.795,21.837,4.425,21.837,4.425l19.754-43.811l26.721,43.811
						c3.75-1.13,18.792-9.86,18.792-9.86l-21.49-39.216c0,0,48.357-22.328,52.903-33.191C448.375,333.875,445.028,319,445.028,319z"
						/>
					<g>
						<path style="fill:#1F160F;" d="M366.904,383.489c-0.089,0-0.177-0.041-0.235-0.117c-0.256-0.338-6.264-8.324-5.526-11.624
							c1.947-8.699,43.374-37.568,45.137-38.793c0.13-0.091,0.315-0.06,0.41,0.074c0.093,0.134,0.06,0.317-0.074,0.41
							c-0.43,0.298-43.001,29.96-44.898,38.438c-0.68,3.035,5.359,11.058,5.42,11.14c0.098,0.13,0.073,0.314-0.057,0.412
							C367.028,383.47,366.966,383.489,366.904,383.489z"/>
						<path style="fill:#1F160F;" d="M428.062,335.295c-0.006,0-0.012-0.001-0.018-0.001c-0.227-0.013-5.593-0.404-8.505-7.494
							c-0.062-0.15,0.01-0.323,0.16-0.385c0.152-0.063,0.322,0.01,0.385,0.16c2.765,6.731,7.943,7.128,7.995,7.131
							c0.162,0.01,0.286,0.149,0.276,0.312C428.347,335.174,428.218,335.295,428.062,335.295z"/>
						<path style="fill:#1F160F;" d="M389.35,378.289c-4.525,0-7.858-1.574-8.014-1.648c-0.146-0.07-0.208-0.246-0.138-0.393
							c0.07-0.148,0.244-0.209,0.394-0.139c0.04,0.02,4.142,1.954,9.31,1.526c0.164-0.015,0.305,0.106,0.317,0.269
							c0.014,0.162-0.106,0.305-0.269,0.317C390.404,378.269,389.868,378.289,389.35,378.289z"/>
					</g>
					<path style="fill:#1F160F;" d="M445.028,319l-38.682,2.025l-0.766,2.51c12.515,1.799,30.317,1.346,40.117-0.506
						C445.378,320.559,445.028,319,445.028,319z"/>
				</g>
			</g>
			<g>
				<g>
					<polygon style="fill:#BD6657;" points="410.375,244.156 429.324,240.663 427.34,221.783 408.239,223.791 					"/>
					<path style="fill:#1F160F;" d="M409.572,236.475l-1.333-12.684l19.101-2.008C427.34,221.783,427.286,236.072,409.572,236.475z"
						/>
				</g>
				<g>
					<path style="fill:#1F160F;" d="M400.233,209.115c-5.421-4.553-4.535-12.101-2.329-15.24c5.783-8.225,18.216-9.938,24.026-7.029
						c7.694-1.511,18.756,10.404,8.741,29.55l-29.177,3.652C398.768,216.266,401.438,212.398,400.233,209.115z"/>
					<path style="fill:#BD6657;" d="M399.171,215.81c1.74,14.17,4.611,19.193,14.513,17.977c9.893-1.215,16.612-7.415,14.872-21.585
						c-1.739-14.16-11.463-17.803-17.016-17.121C405.977,195.763,397.433,201.65,399.171,215.81z"/>
					<g>
						<path style="fill:#BD6657;" d="M434.54,210.6c-1.099-4.546-4.444-5.396-7.385-1.494l1.263,10.288
							C432.977,222.315,435.638,215.146,434.54,210.6z"/>
						<path style="fill:#1F160F;" d="M432.97,211.201c-0.115,0-0.225-0.068-0.272-0.181c-0.367-0.875-0.914-1.355-1.581-1.39
							c-0.774-0.053-1.566,0.513-2.056,1.409c-0.078,0.143-0.258,0.195-0.4,0.117c-0.142-0.078-0.194-0.257-0.117-0.4
							c0.599-1.092,1.629-1.751,2.604-1.714c0.896,0.046,1.64,0.669,2.094,1.751c0.063,0.15-0.008,0.322-0.157,0.385
							C433.047,211.193,433.008,211.201,432.97,211.201z"/>
					</g>
					<g>
						<path style="fill:#1F160F;" d="M410.416,225.888c-0.403,0-0.815-0.023-1.234-0.07c-0.162-0.018-0.278-0.164-0.261-0.325
							c0.018-0.161,0.169-0.278,0.325-0.26c2.372,0.267,4.499-0.266,5.859-1.452c0.122-0.106,0.309-0.094,0.415,0.029
							c0.107,0.122,0.095,0.309-0.028,0.415C414.255,225.305,412.448,225.888,410.416,225.888z"/>
						<path style="fill:#1F160F;" d="M411.075,221.204c-0.402,0-0.834-0.113-1.261-0.338c-0.538-0.284-1.096-0.785-1.13-1.265
							c-0.018-0.253,0.084-0.641,0.238-1.228c0.286-1.093,0.719-2.745,0.524-4.327c-0.021-0.162,0.095-0.309,0.256-0.329
							c0.172-0.023,0.309,0.095,0.328,0.256c0.209,1.694-0.241,3.412-0.539,4.548c-0.118,0.453-0.23,0.881-0.22,1.037
							c0.011,0.15,0.308,0.517,0.816,0.785c0.288,0.152,1.022,0.464,1.635,0.104c0.137-0.083,0.32-0.036,0.402,0.105
							c0.083,0.141,0.035,0.321-0.106,0.403C411.739,221.122,411.418,221.204,411.075,221.204z"/>
						<path style="fill:#1F160F;" d="M404.058,213.428c0.108,0.877,0.669,1.53,1.254,1.458c0.585-0.072,0.972-0.841,0.864-1.718
							c-0.108-0.877-0.669-1.531-1.254-1.459C404.337,211.781,403.95,212.551,404.058,213.428z"/>
						<path style="fill:#1F160F;" d="M402.058,211.001c-0.287,0-0.568-0.14-0.738-0.397c-0.268-0.407-0.156-0.956,0.251-1.224
							c1.479-0.977,2.883-1.294,4.834-1.104c0.485,0.048,0.84,0.481,0.792,0.966c-0.048,0.486-0.482,0.846-0.966,0.792
							c-1.777-0.177-2.698,0.167-3.687,0.819C402.394,210.954,402.225,211.001,402.058,211.001z"/>
						<path style="fill:#1F160F;" d="M416.103,211.905c0.108,0.877-0.279,1.647-0.864,1.718c-0.585,0.072-1.146-0.581-1.254-1.458
							c-0.108-0.877,0.279-1.647,0.864-1.719C415.434,210.374,415.996,211.027,416.103,211.905z"/>
						<path style="fill:#1F160F;" d="M417.357,209.042c-0.126,0-0.255-0.027-0.376-0.085c-1.125-0.531-2.142-0.702-4.307-0.082
							c-0.47,0.134-0.958-0.138-1.093-0.606c-0.134-0.469,0.138-0.958,0.606-1.093c2.341-0.669,3.845-0.62,5.547,0.184
							c0.441,0.208,0.63,0.735,0.422,1.176C418.007,208.855,417.688,209.042,417.357,209.042z"/>
						<path style="fill:#1F160F;" d="M417.959,223.719c0,0-3.101-0.819-5.487-0.414c-2.396,0.407-5.053,2.203-5.053,2.203
							l-0.068-1.237c0,0,1.48-1.973,4.852-2.545c3.372-0.573,5.411,0.803,5.411,0.803L417.959,223.719z"/>
					</g>
					<path style="fill:#1F160F;" d="M411.886,192.194c15.636-1.008,15.74,13.565,15.917,16.136c0.198,2.873-1.034,7.593-1.62,5.652
						c-1.568-5.2-3.89-5.626-5.027-7.357c-1.313-1.999,0.594-5.541-2.321-7.474c-2.962-1.963-7.435,3.331-10.975,3.38
						c-2.219,0.031-2.294-1.562-3.672-1.585c-3.453-0.056-5.973,7.082-6.276,2.921C397.682,200.718,403.686,192.722,411.886,192.194
						z"/>
				</g>
			</g>
			<g>
				<g>
					<g>
						<path style="fill:#BD6657;" d="M353.748,303.631c0,0-11.365,6.922-15.082,8.206c-3.717,1.285-7.911,0.082-9.407-0.199
							c-1.496-0.281-8.112,7.941-8.112,7.941c1.877,1.464,3.474,0.743,4.214,0.027c0.739-0.717,2.153-2.966,3.272-2.881
							c1.119,0.085,1.717,3.038,7.79,2.877c5.896-0.156,14.243-2.058,21.672-7.016L353.748,303.631z"/>
						<path style="fill:#1F160F;" d="M332.371,314.878c-0.04,0-0.081-0.009-0.119-0.025c-0.031-0.014-3.139-1.373-5.269-0.917
							c-0.159,0.031-0.315-0.066-0.35-0.226c-0.034-0.159,0.068-0.315,0.227-0.35c2.317-0.491,5.496,0.896,5.63,0.954
							c0.149,0.066,0.216,0.24,0.15,0.389C332.591,314.813,332.483,314.878,332.371,314.878z"/>
					</g>
					<path style="fill:#1F160F;" d="M352.916,303.75c11.352-6.692,36.834-19.938,36.834-19.938s21.763-33.768,26.98-37.581
						c5.217-3.813,17.845,6,13.533,14.438c-1.959,3.833-18.513,31.932-28.034,37.625l-42.742,17.237
						C355.604,310.728,352.916,303.75,352.916,303.75z"/>
				</g>
				<g>
					<path style="fill:#FFFFFF;" d="M446.69,320.95c-29.7,3.24-41.7,0.78-41.7,0.78c-7.13-26.77,2.16-66.85,5.24-77.07
						c-0.15-0.13-0.3-0.25-0.47-0.38c5.36-2.09,13.26-3.69,18.91-9.83l2.85,4.19C448.5,265.75,446.69,320.95,446.69,320.95z"/>
					<path style="fill:#1F160F;" d="M414.522,249.335c-0.108,0-0.201-0.011-0.278-0.034c-0.973-0.288-1.404-0.944-1.951-1.776
						c-0.543-0.826-1.22-1.854-2.713-3.01c-0.128-0.1-0.151-0.285-0.052-0.413c0.1-0.129,0.285-0.151,0.413-0.053
						c1.57,1.216,2.306,2.336,2.844,3.153c0.517,0.788,0.86,1.309,1.627,1.535c1.482,0.442,13.815-5.925,16.863-10.265
						c0.094-0.133,0.279-0.166,0.41-0.071c0.134,0.093,0.165,0.277,0.072,0.41C428.894,242.885,417.156,249.335,414.522,249.335z"/>
					<path style="fill:#56545E;" d="M438.052,252.727c-2.908-1.671-6.975-3.889-7.966-4.237c-3.728-1.307-7.588-0.917-11.475,1.155
						c-2.065,1.1-8.352,4.449-5.805,41.272c0.9,13.017,2.605,25.724,3.467,31.678c0.002,0,0.004,0,0.006,0
						c0.942,0.019,1.948,0.029,3.017,0.029c-3.958-26.247-7.02-66.205,0.725-70.331c3.116-1.661,6.164-1.988,9.063-0.975
						c2.069,0.723,7.21,3.629,10.424,5.941C439.052,255.724,438.567,254.21,438.052,252.727z"/>
				</g>
				<g>
					<g>
						<path style="fill:#BD6657;" d="M354.25,309.813c0,0-11.391,6.063-15.258,6.781c-3.867,0.719-7.836-1.094-9.273-1.594
							s-9.201,6.649-9.201,6.649c1.639,1.726,3.325,1.251,4.163,0.652c0.838-0.599,2.57-2.613,3.663-2.363
							c1.094,0.25,1.247,3.259,7.277,4.002c5.853,0.721,14.391,0.079,22.473-3.72L354.25,309.813z"/>
						<path style="fill:#1F160F;" d="M320.518,321.944c-0.08,0-0.159-0.032-0.217-0.096c-0.11-0.119-0.103-0.306,0.017-0.416
							c1.318-1.214,7.971-7.246,9.498-6.711c0.181,0.063,0.402,0.146,0.657,0.243c1.805,0.683,5.164,1.95,8.466,1.34
							c3.778-0.703,15.06-6.691,15.173-6.752c0.144-0.077,0.322-0.022,0.398,0.121c0.077,0.144,0.022,0.322-0.122,0.398
							c-0.467,0.249-11.476,6.092-15.342,6.811c-3.465,0.648-6.924-0.663-8.782-1.367c-0.249-0.095-0.465-0.176-0.642-0.237
							c-0.796-0.286-5.153,3.132-8.905,6.588C320.661,321.918,320.589,321.944,320.518,321.944z"/>
						<path style="fill:#1F160F;" d="M332.359,318.67c-0.048,0-0.096-0.012-0.141-0.037c-0.034-0.019-3.438-1.884-5.635-1.742
							c-0.154,0.005-0.301-0.113-0.312-0.276c-0.01-0.162,0.114-0.302,0.276-0.312c2.359-0.134,5.809,1.734,5.955,1.814
							c0.143,0.078,0.195,0.257,0.117,0.399C332.564,318.614,332.463,318.67,332.359,318.67z"/>
					</g>
					<g>
						<path style="fill:#FFFFFF;" d="M352.916,308.633c11.352-6.692,39.014-18.918,39.014-18.918l13.069-18.361
							c0,0,9.064-13.917,14.282-17.73c5.217-3.813,17.845,6,13.533,14.438c-1.959,3.833-20.062,30.188-29.583,35.88l-44.908,18.11
							C354.437,317.25,352.916,308.633,352.916,308.633z"/>
						<path style="fill:#1F160F;" d="M403.229,304.238c-0.1,0-0.197-0.052-0.253-0.144c-0.083-0.14-0.038-0.32,0.102-0.404
							c9.305-5.563,27.472-31.747,29.471-35.76c0.073-0.144,0.247-0.202,0.395-0.132c0.146,0.072,0.204,0.249,0.132,0.396
							c-2.08,4.174-20.096,30.261-29.695,36.002C403.333,304.225,403.281,304.238,403.229,304.238z"/>
						<path style="fill:#1F160F;" d="M352.916,308.928c-0.101,0-0.199-0.052-0.254-0.146c-0.082-0.14-0.036-0.32,0.104-0.403
							c10.949-6.454,37.37-18.19,38.97-18.899l13.021-18.296c0.068-0.104,7.548-11.553,12.794-16.484
							c0.12-0.11,0.305-0.105,0.417,0.013c0.111,0.119,0.105,0.306-0.013,0.417c-5.195,4.883-12.637,16.271-12.711,16.387
							l-13.075,18.371c-0.031,0.043-0.073,0.077-0.121,0.099c-0.276,0.122-27.776,12.295-38.983,18.901
							C353.019,308.914,352.967,308.928,352.916,308.928z"/>
					</g>
				</g>
			</g>
		</g>
		<g>
			<polygon style="fill:#1F160F;" points="98.532,258.186 140.328,293.625 272.798,293.625 231.001,258.186 98.532,255.561 			"/>
			<polygon style="fill:#BF4E32;" points="98.532,255.561 140.328,291 272.798,291 231.001,255.561 			"/>
			<rect x="85.75" y="291" style="fill:#662F0C;" width="54.578" height="41.25"/>
			<polygon style="fill:#BF4E32;" points="360.82,326.72 360.82,332.25 140.328,332.25 140.328,291 272.8,291 292.29,321.03 			"/>
			<g>
				<path style="fill:#BF4E32;" d="M351.445,337.731h-13.621c-0.683,0-1.318-0.348-1.686-0.924l-2.91-4.558h22.813l-2.91,4.558
					C352.763,337.383,352.127,337.731,351.445,337.731z"/>
				<rect x="342.759" y="337.731" style="fill:#BF4E32;" width="3.75" height="111.269"/>
				<rect x="342.759" y="337.731" style="fill:#1F160F;" width="3.75" height="1.769"/>
			</g>
			<g>
				<path style="fill:#662F0C;" d="M293.285,337.731h-13.621c-0.683,0-1.318-0.348-1.686-0.924l-2.91-4.558h22.813l-2.91,4.558
					C294.603,337.383,293.967,337.731,293.285,337.731z"/>
				<rect x="284.599" y="337.731" style="fill:#662F0C;" width="3.75" height="111.269"/>
				<rect x="284.599" y="337.731" style="fill:#1F160F;" width="3.75" height="1.769"/>
			</g>
			<g>
				<path style="fill:#BF4E32;" d="M167.32,337.731h-13.621c-0.683,0-1.318-0.348-1.686-0.924l-2.91-4.558h22.813l-2.91,4.558
					C168.638,337.383,168.003,337.731,167.32,337.731z"/>
				<rect x="158.635" y="337.731" style="fill:#BF4E32;" width="3.75" height="111.269"/>
				<rect x="158.635" y="337.731" style="fill:#1F160F;" width="3.75" height="1.769"/>
			</g>
			<g>
				<path style="fill:#662F0C;" d="M109.16,337.731H95.539c-0.683,0-1.318-0.348-1.686-0.924l-2.91-4.558h22.813l-2.91,4.558
					C110.478,337.383,109.843,337.731,109.16,337.731z"/>
				<rect x="100.475" y="337.731" style="fill:#662F0C;" width="3.75" height="111.269"/>
				<rect x="100.475" y="337.731" style="fill:#1F160F;" width="3.75" height="1.769"/>
			</g>
			<path style="fill:#1F160F;" d="M272.798,291.295H140.329c-0.163,0-0.294-0.132-0.294-0.295s0.132-0.295,0.294-0.295h132.469
				c0.163,0,0.294,0.132,0.294,0.295S272.96,291.295,272.798,291.295z"/>
		</g>
		<g>
			<g>
				<g>
					<polygon style="fill:#EBA38D;" points="250.297,440.444 232.752,440.444 230.624,422.58 248.143,422.58 					"/>
					<g>
						<path style="fill:#1F160F;" d="M281.623,449h-48.596c-2.241-4.583-0.698-12.994-0.698-12.994
							c1.894,1.341,10.912,2.847,12.004,1.434c1.092-1.412,1.304-5.553,4.147-5.553s2.313,3.254,4.202,5.05
							c1.889,1.796,20.248,3.87,23.092,4.464C279.759,442.233,281.95,444.185,281.623,449z"/>
						<g>
							<path style="fill:#FFFFFF;" d="M251.526,440.265c-0.099,0-0.195-0.05-0.25-0.14c-0.086-0.138-0.044-0.319,0.094-0.405
								c0.06-0.037,1.486-0.919,4.037-1.964c0.151-0.06,0.322,0.01,0.384,0.161c0.062,0.15-0.01,0.322-0.161,0.384
								c-2.501,1.024-3.935,1.91-3.949,1.919C251.633,440.25,251.579,440.265,251.526,440.265z"/>
							<path style="fill:#FFFFFF;" d="M255.198,440.847c-0.112,0-0.22-0.065-0.269-0.175c-0.066-0.148,0.001-0.322,0.149-0.389
								c1.428-0.64,2.952-1.215,4.528-1.712c0.154-0.047,0.32,0.038,0.369,0.192c0.049,0.155-0.037,0.321-0.192,0.37
								c-1.555,0.489-3.057,1.057-4.464,1.687C255.279,440.838,255.239,440.847,255.198,440.847z"/>
						</g>
						<path style="fill:#FFFFFF;" d="M281.586,446.938c0.071,0.623,0.089,1.303,0.037,2.062h-48.596
							c-0.306-0.625-0.536-1.325-0.714-2.062H281.586z"/>
					</g>
				</g>
				<g>
					<polygon style="fill:#EBA38D;" points="194.254,438.961 176.913,438.961 178.012,421.42 196.116,421.42 					"/>
					<g>
						<path style="fill:#1F160F;" d="M185.601,431.887c4.672,0,4.395,3.451,5.683,4.102c2.03,1.026,3.331,0,3.331,0
							s2.146,7.313-0.361,13.011h-17.679c-2.045-5.993,0.275-13.011,0.275-13.011s0.999,0.8,2.877,0
							C181.598,435.191,180.06,431.887,185.601,431.887z"/>
						<g>
							<path style="fill:#FFFFFF;" d="M180.973,438.694c-0.141,0-0.265-0.102-0.29-0.245c-0.028-0.16,0.08-0.313,0.24-0.34
								c0.032-0.005,3.251-0.546,8.064-0.165c0.162,0.014,0.283,0.155,0.27,0.317c-0.013,0.162-0.156,0.271-0.317,0.271
								c-4.733-0.38-7.886,0.151-7.917,0.157C181.006,438.692,180.99,438.694,180.973,438.694z"/>
							<path style="fill:#FFFFFF;" d="M180.973,440.888c-0.141,0-0.265-0.102-0.29-0.245c-0.028-0.16,0.08-0.313,0.24-0.34
								c0.032-0.005,3.251-0.549,8.064-0.165c0.162,0.014,0.283,0.155,0.27,0.317c-0.013,0.162-0.156,0.272-0.317,0.27
								c-4.735-0.381-7.886,0.151-7.917,0.157C181.006,440.886,180.99,440.888,180.973,440.888z"/>
						</g>
						<path style="fill:#FFFFFF;" d="M194.951,446.938c-0.177,0.7-0.403,1.393-0.697,2.062h-17.679
							c-0.231-0.678-0.4-1.369-0.529-2.062H194.951z"/>
					</g>
				</g>
				<g>
					<path style="fill:#FFFFFF;" d="M229.024,290.08h-56.272c-0.607,13.02,3.667,24.872,4.674,32.518
						c1.25,9.5-3.17,103.778-3.17,103.778c6.302,2.649,23.995,0.677,23.995,0.677C203.173,384,208,333.125,208,333.125
						c13.875,39.877,21.589,92.623,21.589,92.623c6.477,2.471,21.072-0.429,21.072-0.429
						C245.047,346.5,236.049,326.527,229.024,290.08z"/>
					<g>
						<path style="fill:#1F160F;" d="M208,333.42c-0.163,0-0.294-0.132-0.294-0.295c0-0.265-0.012-26.565-1.016-36.189
							c-0.017-0.161,0.101-0.307,0.262-0.323c0.167-0.011,0.307,0.101,0.324,0.263c1.007,9.653,1.018,35.984,1.018,36.249
							C208.294,333.288,208.163,333.42,208,333.42z"/>
						<path style="fill:#1F160F;" d="M209.06,322.543c-0.386,0-0.803-0.088-1.247-0.265c-0.151-0.059-0.225-0.23-0.165-0.382
							c0.06-0.15,0.232-0.226,0.382-0.165c0.855,0.339,1.533,0.292,2.076-0.145c3.453-2.776,0.687-19.792-0.222-25.384
							c-0.026-0.16,0.083-0.311,0.243-0.338c0.162-0.021,0.312,0.084,0.338,0.244c2.545,15.654,2.548,23.896,0.01,25.936
							C210.062,322.377,209.589,322.543,209.06,322.543z"/>
						<path style="fill:#1F160F;" d="M191.092,364.189c-2.561,0-4.577-0.198-4.735-0.214c-0.162-0.017-0.28-0.161-0.263-0.322
							c0.016-0.163,0.159-0.277,0.323-0.264c0.072,0.007,7.345,0.722,11.941-0.565c0.161-0.05,0.319,0.047,0.363,0.204
							c0.044,0.156-0.048,0.318-0.204,0.362C196.263,364.022,193.447,364.189,191.092,364.189z"/>
						<path style="fill:#1F160F;" d="M231.379,363.426c-0.726,0-1.194-0.023-1.255-0.025c-0.163-0.008-0.288-0.146-0.279-0.309
							c0.008-0.162,0.16-0.274,0.309-0.279c0.051,0.004,5.116,0.236,8.789-0.925c0.157-0.047,0.32,0.038,0.37,0.192
							c0.049,0.155-0.037,0.32-0.192,0.37C236.443,363.296,233.147,363.426,231.379,363.426z"/>
					</g>
					<path style="fill:#1F160F;" d="M229.024,290.08h-56.272c-0.259,5.56,0.374,10.902,1.261,15.799
						c9.814-1.044,24.47-4.769,26.613-5.317c2.687-0.688,4.25-4.625,5.687-7.25l2.438,4.313c0,0,9.783,0.361,20.964-4.049
						C229.482,292.426,229.252,291.262,229.024,290.08z"/>
				</g>
			</g>
			<g>
				<g>
					<polygon style="fill:#EBA38D;" points="187.183,200.922 168.337,204.644 165.04,185.949 183.955,182.614 					"/>
					<path style="fill:#1F160F;" d="M186.169,195.174l-2.215-12.56l-18.914,3.335C165.04,185.949,169.03,199.669,186.169,195.174z"
						/>
				</g>
				<g>
					<path style="fill:#1F160F;" d="M187.605,166.3c2.314-3.467,3.701-9.965,1.926-13.367c-4.236-8.118-11.484-7.62-16.914-7.078
						l0.977-1.855c0,0-9.906-0.156-14.434,7.16c-11.535,3.246-9.1,16.856,1.192,30.528l29.054-4.532
						C190.984,172.77,187.352,169.788,187.605,166.3z"/>
					<path style="fill:#EBA38D;" d="M190.471,172.442c2.233,14.101,0.858,19.72-8.996,21.281
						c-9.845,1.559-18.012-2.549-20.245-16.649c-2.232-14.09,6.111-20.273,11.638-21.148
						C178.404,155.048,188.239,158.352,190.471,172.442z"/>
					<g>
						<path style="fill:#EBA38D;" d="M155.037,177.183c-0.197-4.673,2.784-6.412,6.687-3.471l1.622,10.237
							C159.768,188.014,155.234,181.856,155.037,177.183z"/>
						<path style="fill:#1F160F;" d="M156.631,177.339c-0.012,0-0.023-0.001-0.035-0.002c-0.162-0.019-0.277-0.165-0.258-0.327
							c0.138-1.166,0.682-1.968,1.53-2.26c0.929-0.321,2.098,0.045,2.975,0.931c0.114,0.115,0.113,0.302-0.003,0.417
							c-0.116,0.113-0.303,0.113-0.417-0.003c-0.718-0.725-1.646-1.037-2.365-0.788c-0.632,0.217-1.025,0.83-1.137,1.773
							C156.906,177.23,156.778,177.339,156.631,177.339z"/>
					</g>
					<g>
						<path style="fill:#1F160F;" d="M179.976,180.987c-0.148,0-0.294-0.018-0.437-0.055c-0.158-0.04-0.253-0.201-0.212-0.358
							c0.04-0.157,0.195-0.252,0.358-0.212c0.689,0.175,1.308-0.327,1.542-0.551c0.415-0.398,0.599-0.831,0.568-0.979
							c-0.033-0.152-0.258-0.533-0.497-0.936c-0.599-1.01-1.505-2.537-1.772-4.223c-0.025-0.161,0.084-0.312,0.245-0.337
							c0.155-0.025,0.312,0.083,0.337,0.245c0.249,1.574,1.121,3.043,1.697,4.015c0.31,0.522,0.514,0.867,0.567,1.114
							c0.1,0.471-0.297,1.106-0.736,1.527C181.124,180.726,180.539,180.987,179.976,180.987z"/>
						<path style="fill:#1F160F;" d="M185.118,171.5c0.138,0.873-0.222,1.655-0.804,1.748c-0.582,0.092-1.166-0.541-1.304-1.414
							c-0.138-0.873,0.221-1.656,0.803-1.748C184.396,169.994,184.98,170.627,185.118,171.5z"/>
						<path style="fill:#1F160F;" d="M181.769,168.9c-0.352,0-0.684-0.211-0.822-0.558c-0.18-0.454,0.042-0.967,0.495-1.148
							c1.825-0.723,3.26-0.802,4.951-0.271c0.466,0.146,0.725,0.642,0.578,1.108c-0.146,0.465-0.644,0.724-1.107,0.578
							c-1.131-0.355-2.111-0.431-3.77,0.229C181.988,168.88,181.877,168.9,181.769,168.9z"/>
						<path style="fill:#1F160F;" d="M173.119,173.356c0.138,0.873,0.722,1.506,1.304,1.414c0.582-0.092,0.942-0.875,0.804-1.748
							c-0.138-0.873-0.722-1.506-1.304-1.414C173.34,171.7,172.981,172.483,173.119,173.356z"/>
						<path style="fill:#1F160F;" d="M170.88,170.983c-0.246,0-0.49-0.102-0.665-0.301c-0.322-0.367-0.285-0.925,0.082-1.247
							c1.414-1.241,2.846-1.703,5.281-1.705h0.001c0.488,0,0.883,0.395,0.883,0.883c0.001,0.488-0.395,0.884-0.883,0.884
							c-2.249,0.001-3.183,0.446-4.117,1.266C171.295,170.911,171.087,170.983,170.88,170.983z"/>
						<path style="fill:#1F160F;" d="M183.382,184.398c0,1.126-0.729,2.039-1.629,2.039c-0.9,0-1.629-0.913-1.629-2.039
							c0-1.126,0.729-2.039,1.629-2.039C182.653,182.359,183.382,183.272,183.382,184.398z"/>
						<path style="fill:#1F160F;" d="M178.688,187.201c-0.007,0-0.014-0.001-0.021-0.001c-0.162-0.011-0.285-0.152-0.273-0.314
							c0.002-0.034,0.215-3.442-1.623-5.107c-0.121-0.109-0.13-0.295-0.021-0.416c0.109-0.121,0.296-0.13,0.416-0.02
							c2.051,1.858,1.825,5.433,1.815,5.585C178.97,187.082,178.841,187.201,178.688,187.201z"/>
					</g>
					<path style="fill:#1F160F;" d="M171.74,153.246c-15.308,3.341-11.391,17.378-10.852,19.898
						c0.601,2.817,2.915,7.004,3.115,4.986c0.965-9.75,4.724-9.068,4.9-15.943c7.194,2.532,14.705,1.294,14.705,1.294
						s-1.517-1.079-2.238-2.419c0,0,7.877,3.636,7.021-0.447C187.743,157.524,179.768,151.494,171.74,153.246z"/>
				</g>
			</g>
			<g>
				<g>
					<path style="fill:#FFFFFF;" d="M172,198.875c-9.495,1.485-19.063,9.625-20.625,15.063c-1.563,5.438,6.437,36.875,6.437,36.875
						l11.656,0.566c2.063,13.278-1.309,41.944,3.283,51.189c0,0,19.419-3.06,28.934-5.551c0,0,4.266-3.919,5.806-6.937
						c0,0,2.384,2.108,3.79,5.42c0,0,13.902-0.817,19.091-3.151c0,0-6.998-38.094-23.176-71.474l10.78,0.856l-6.013-17.553
						C197.5,196.125,187.183,196.5,172,198.875z"/>
					<path style="fill:#EBA38D;" d="M172,198.875c-1.871,0.293-3.742,0.851-5.556,1.588l0.677,1.662
						c7.022,7.626,24.928,3.967,21.442-4.713C183.437,197.3,178.115,197.919,172,198.875z"/>
					<path style="fill:#56545E;" d="M211.281,295.5c0,0,13.902-0.817,19.092-3.151c0,0-6.758-36.748-22.328-69.686
						c-10.012-7.608-14.3-18.279-17.918-25.202c-1.167-0.062-2.345-0.075-3.533-0.059c1.223,4.347,3.407,12.021,2.488,22.817
						c0,0-11.113-13.626-21.399-20.219c-0.988,0.349-1.964,0.748-2.916,1.203c2.225,2.616,16.108,13.984,9.669,27.506l3.251,15.84
						l-8.217,6.829c2.063,13.278-1.309,41.944,3.283,51.189c0,0,19.419-3.06,28.934-5.551c0,0,4.266-3.919,5.806-6.937
						C207.491,290.08,209.875,292.188,211.281,295.5z"/>
				</g>
				<g>
					<path style="fill:#1F160F;" d="M207.196,221.169c-0.112,0-0.22-0.065-0.269-0.174c-3.996-8.924-7.789-12.678-7.827-12.715
						c-0.116-0.113-0.119-0.3-0.005-0.416c0.114-0.118,0.3-0.119,0.416-0.006c0.158,0.153,3.906,3.855,7.954,12.896
						c0.067,0.148,0,0.322-0.148,0.389C207.277,221.161,207.237,221.169,207.196,221.169z"/>
					<path style="fill:#1F160F;" d="M175.788,235.861c-0.138,0-0.261-0.097-0.289-0.237l-4.019-20.378
						c-0.031-0.16,0.073-0.314,0.232-0.346c0.161-0.031,0.314,0.072,0.346,0.232l4.019,20.378c0.031,0.16-0.072,0.314-0.232,0.346
						C175.826,235.859,175.807,235.861,175.788,235.861z"/>
					<path style="fill:#1F160F;" d="M207.491,290.375c-0.151,0-0.28-0.116-0.293-0.27c-0.033-0.387-3.514-39.006-18.381-69.757
						c-0.071-0.146-0.009-0.323,0.137-0.394c0.146-0.072,0.323-0.009,0.394,0.137c14.916,30.851,18.404,69.575,18.438,69.963
						c0.014,0.162-0.106,0.305-0.268,0.318C207.508,290.374,207.5,290.375,207.491,290.375z"/>
				</g>
				<g>
					<path style="fill:#E59545;" d="M262.715,257.132c-9.757-27.48-4.726-29.725-4.726-29.725l-9.665-16.292
						c-10.313,4.266-14.215,12.823-12.508,20.916c1.538,7.294,3.178,13.565,4.558,18.372c-6.02-11.853-30.091-58.735-37.566-65.489
						c-8.568-7.742-19.827-1.928-19.827-1.928l0.522,1.761c6.005-1.536,9.558-0.908,15.539,4.977
						c5.982,5.885,33.839,70.613,37.271,78.026C242.797,281.757,269.054,274.985,262.715,257.132z"/>
					<path style="fill:#1F160F;" d="M243.625,261.014c-0.12,0-0.233-0.074-0.277-0.194c-0.014-0.038-1.412-3.896-3.259-10.335
						c-0.045-0.156,0.046-0.319,0.202-0.364c0.155-0.045,0.319,0.046,0.364,0.202c1.841,6.416,3.232,10.258,3.246,10.296
						c0.056,0.152-0.023,0.321-0.176,0.377C243.692,261.008,243.658,261.014,243.625,261.014z"/>
					<path style="fill:#E59545;" d="M183.106,182.924c-0.298-0.189-1.692-0.039-1.886,0.252c-0.194,0.291,0.337,2.188,0.6,2.391
						c0.373,0.288,1.505-0.317,1.978-0.894L183.106,182.924z"/>
					<path style="fill:#E59545;" d="M259.987,218.996c2.995,6.503,2.763,13-0.518,14.511s-8.368-2.537-11.362-9.04
						c-2.995-6.503-2.763-13,0.518-14.511C251.905,208.445,256.992,212.492,259.987,218.996z"/>
					<path style="fill:#BF4E32;" d="M257.978,231.823c-2.104,0-5.693-3.065-8.056-8.193c-2.799-6.08-2.143-11.083-0.461-11.857
						c0.193-0.089,0.407-0.133,0.652-0.133c2.105,0,5.694,3.064,8.057,8.193c1.301,2.825,1.997,5.821,1.912,8.22
						c-0.068,1.891-0.61,3.251-1.45,3.637C258.438,231.779,258.225,231.823,257.978,231.823z"/>
					<path style="fill:#1F160F;" d="M257.974,234.119c-1.363,0-2.902-0.644-4.476-1.897c-2.181-1.736-4.191-4.446-5.658-7.633
						c-3.058-6.64-2.761-13.325,0.662-14.901c0.146-0.066,0.322-0.003,0.391,0.145c0.068,0.147,0.003,0.322-0.145,0.391
						c-3.128,1.441-3.295,7.775-0.373,14.12c1.429,3.104,3.378,5.739,5.489,7.418c2.055,1.635,4.001,2.158,5.482,1.478
						c0.146-0.066,0.322-0.003,0.391,0.145c0.068,0.148,0.003,0.322-0.145,0.391C259.091,234.005,258.548,234.119,257.974,234.119z"
						/>
				</g>
				<g>
					<path style="fill:#EBA38D;" d="M217.593,207.602c0,0-2.069,0.218-2.796,1.781c-0.533,1.146,1.453,1.719,1.453,1.719
						s-1.617,1.242-0.656,2.602c0.528,0.746,3.114-0.067,3.114-0.067s-0.608,1.153,0.026,1.965c0.75,0.961,2.702,0.005,2.702,0.005
						s-0.042,1.301,0.42,1.847c0.622,0.734,1.481,0.375,1.481,0.375s1.211-3.249-0.527-7.355c-1.738-4.105-5.193-9.1-8.254-8.17
						L217.593,207.602z"/>
					<path style="fill:#1F160F;" d="M222.853,218.21c-0.388,0-0.851-0.13-1.221-0.566c-0.35-0.413-0.453-1.13-0.481-1.6
						c-0.673,0.247-1.992,0.581-2.649-0.261c-0.438-0.562-0.388-1.238-0.267-1.708c-0.879,0.219-2.4,0.478-2.881-0.202
						c-0.726-1.027-0.213-2.053,0.346-2.662c-0.409-0.18-0.964-0.504-1.188-0.995c-0.138-0.303-0.132-0.634,0.019-0.957
						c0.582-1.252,1.91-1.713,2.6-1.872l-2.83-4.937c-0.081-0.141-0.032-0.321,0.109-0.402c0.143-0.081,0.322-0.032,0.402,0.109
						l3.037,5.299c0.049,0.086,0.052,0.191,0.007,0.28c-0.045,0.088-0.132,0.148-0.231,0.159c-0.019,0.002-1.914,0.223-2.56,1.611
						c-0.079,0.169-0.084,0.316-0.017,0.464c0.204,0.448,0.997,0.764,1.285,0.848c0.106,0.031,0.186,0.119,0.207,0.228
						c0.02,0.108-0.021,0.22-0.109,0.288c-0.057,0.044-1.38,1.089-0.596,2.198c0.264,0.372,1.787,0.136,2.786-0.178
						c0.114-0.037,0.237,0.001,0.314,0.092c0.076,0.091,0.09,0.22,0.035,0.326c-0.005,0.01-0.509,0.998-0.002,1.647
						c0.492,0.631,1.855,0.157,2.34-0.079c0.093-0.046,0.203-0.038,0.289,0.018c0.087,0.056,0.138,0.153,0.135,0.256
						c-0.01,0.331,0.033,1.272,0.35,1.647c0.471,0.555,1.117,0.305,1.144,0.293c0.149-0.061,0.322,0.011,0.383,0.161
						c0.062,0.15-0.009,0.321-0.158,0.383C223.31,218.159,223.097,218.21,222.853,218.21z"/>
					<path style="fill:#1F160F;" d="M216.25,211.396c-0.109,0-0.215-0.061-0.266-0.167c-0.07-0.147-0.008-0.323,0.138-0.393
						c1.929-0.925,3.168-1.07,3.22-1.075c0.155-0.024,0.306,0.098,0.325,0.26c0.018,0.162-0.098,0.307-0.26,0.325
						c-0.012,0.001-1.201,0.144-3.03,1.021C216.336,211.387,216.293,211.396,216.25,211.396z"/>
					<path style="fill:#1F160F;" d="M218.708,213.931c-0.109,0-0.214-0.061-0.265-0.166c-0.071-0.146-0.009-0.322,0.137-0.393
						c1.452-0.701,2.179-0.925,2.209-0.934c0.155-0.05,0.32,0.04,0.368,0.196c0.047,0.155-0.041,0.32-0.196,0.368
						c-0.007,0.002-0.721,0.224-2.125,0.901C218.795,213.921,218.751,213.931,218.708,213.931z"/>
					<path style="fill:#1F160F;" d="M221.436,215.9c-0.083,0-0.165-0.035-0.224-0.103c-0.106-0.124-0.091-0.31,0.032-0.416
						c0.824-0.704,1.316-0.791,1.37-0.798c0.155-0.021,0.31,0.088,0.333,0.25c0.023,0.161-0.089,0.31-0.25,0.333l0,0
						c0.001,0-0.386,0.079-1.07,0.664C221.572,215.877,221.504,215.9,221.436,215.9z"/>
				</g>
				<g>
					<path style="fill:#EBA38D;" d="M157.812,250.813c1.906,7.938,5.834,18.634,12.402,18.161
						c6.567-0.473,48.807-23.989,48.807-23.989c6.277-1.487,14.539-5.322,15.352-6.255c0.814-0.933-0.522-3.614-1.764-2.949
						c0,0,1.153-0.97,0.203-2.484c-0.523-0.834-1.563-0.808-1.563-0.808s1.563-1.114,0.727-2.59c-0.622-1.098-2.367-0.58-2.367-0.58
						s1.594-1.475-0.166-3.196c-0.889-0.869-9.537,4.021-9.537,4.021c-0.375-2.113-2.917-8.245-4.36-7.305
						c-0.624,0.406,0.204,3.947,0.454,5.539s-0.089,3.727-0.357,3.985c-0.268,0.258-4.081,3.669-4.081,3.669l-33.545,10.14
						l-0.852-4.177L157.812,250.813z"/>
					<g>
						<path style="fill:#1F160F;" d="M226.063,231.224c-0.101,0-0.199-0.052-0.254-0.145c-0.083-0.14-0.036-0.321,0.104-0.403
							c0.054-0.032,1.36-0.796,3.593-1.634c0.155-0.056,0.322,0.02,0.379,0.172c0.057,0.152-0.02,0.322-0.172,0.379
							c-2.18,0.818-3.488,1.582-3.501,1.59C226.165,231.211,226.114,231.224,226.063,231.224z"/>
						<path style="fill:#1F160F;" d="M227.836,234.117c-0.118,0-0.229-0.071-0.274-0.187c-0.059-0.152,0.016-0.323,0.167-0.382
							l3.415-1.334c0.152-0.058,0.322,0.016,0.381,0.167c0.059,0.152-0.016,0.323-0.167,0.382l-3.415,1.334
							C227.908,234.111,227.872,234.117,227.836,234.117z"/>
						<path style="fill:#1F160F;" d="M229.406,237.114c-0.125,0-0.24-0.079-0.28-0.204c-0.05-0.155,0.035-0.321,0.189-0.371
							l3.203-1.039c0.155-0.05,0.32,0.035,0.371,0.189c0.05,0.155-0.035,0.321-0.189,0.371l-3.203,1.039
							C229.467,237.11,229.436,237.114,229.406,237.114z"/>
						<path style="fill:#1F160F;" d="M225.113,243.389c-0.125,0-0.242-0.081-0.281-0.207c-0.048-0.155,0.038-0.32,0.193-0.369
							c0.061-0.019,6.122-1.928,9.167-4.316c0.127-0.099,0.313-0.079,0.414,0.05c0.1,0.128,0.078,0.313-0.05,0.414
							c-3.13,2.454-9.102,4.335-9.355,4.414C225.172,243.385,225.142,243.389,225.113,243.389z"/>
						<path style="fill:#1F160F;" d="M219.906,230.439c-0.042,0-0.083-0.009-0.121-0.026c-0.085-0.039-0.147-0.115-0.167-0.206
							c-1.115-5.174-3.769-7.192-3.795-7.212c-0.13-0.097-0.158-0.281-0.062-0.412c0.098-0.129,0.281-0.158,0.411-0.063
							c0.113,0.083,2.725,2.054,3.934,7.176c1.239-0.682,5.439-2.958,7.518-3.64c0.153-0.053,0.321,0.034,0.372,0.188
							c0.051,0.155-0.034,0.321-0.188,0.372c-2.349,0.771-7.705,3.755-7.758,3.785C220.005,230.426,219.956,230.439,219.906,230.439
							z"/>
						<path style="fill:#1F160F;" d="M175.479,253.42c-0.153,0-0.282-0.119-0.294-0.273c-0.012-0.17-0.268-4.197,2.62-7.18
							c0.113-0.117,0.299-0.121,0.416-0.006c0.117,0.113,0.12,0.299,0.006,0.417c-2.706,2.794-2.458,6.688-2.455,6.727
							c0.012,0.162-0.11,0.304-0.272,0.315C175.494,253.419,175.486,253.42,175.479,253.42z"/>
					</g>
					<polygon style="fill:#FFFFFF;" points="158.532,253.571 155.312,243.75 176.309,235.863 177.686,244.55 					"/>
					<path style="fill:#1F160F;" d="M156.244,243.694c-0.121,0-0.233-0.074-0.277-0.194c-0.055-0.153,0.023-0.322,0.177-0.377
						l19.227-6.962c0.15-0.058,0.322,0.023,0.377,0.177c0.055,0.153-0.023,0.322-0.177,0.377l-19.227,6.962
						C156.311,243.689,156.277,243.694,156.244,243.694z"/>
				</g>
			</g>
		</g>
		<g>
			<g>
				<g>
					<g>
						<polygon style="fill:#EBA38D;" points="567.685,440.444 585.23,440.444 587.358,422.58 569.839,422.58 						"/>
						<g>
							<path style="fill:#FFFFFF;" d="M536.359,449h48.596c2.241-4.583,0.698-12.994,0.698-12.994
								c-1.893,1.341-10.912,2.847-12.003,1.434c-1.092-1.412-1.304-5.553-4.147-5.553c-2.842,0-2.313,3.254-4.202,5.05
								c-1.889,1.796-20.248,3.87-23.092,4.464C538.223,442.233,536.032,444.185,536.359,449z"/>
							<g>
								<path style="fill:#1F160F;" d="M566.456,440.265c-0.054,0-0.107-0.015-0.155-0.045c-0.015-0.009-1.449-0.895-3.949-1.919
									c-0.15-0.062-0.223-0.233-0.161-0.384c0.063-0.151,0.235-0.221,0.384-0.161c2.552,1.045,3.978,1.927,4.037,1.964
									c0.139,0.086,0.181,0.268,0.095,0.405C566.65,440.215,566.554,440.265,566.456,440.265z"/>
								<path style="fill:#1F160F;" d="M562.784,440.847c-0.04,0-0.081-0.009-0.12-0.026c-1.41-0.63-2.912-1.198-4.465-1.687
									c-0.154-0.049-0.241-0.215-0.192-0.37c0.049-0.155,0.209-0.24,0.37-0.192c1.574,0.496,3.098,1.072,4.527,1.712
									c0.148,0.066,0.215,0.24,0.148,0.389C563.004,440.781,562.896,440.847,562.784,440.847z"/>
							</g>
							<path style="fill:#496099;" d="M536.396,446.938c-0.071,0.623-0.089,1.303-0.037,2.062h48.596
								c0.306-0.625,0.536-1.325,0.714-2.062H536.396z"/>
						</g>
					</g>
					<g>
						<polygon style="fill:#EBA38D;" points="621.847,438.961 639.187,438.961 638.089,421.42 619.984,421.42 						"/>
						<g>
							<path style="fill:#FFFFFF;" d="M630.5,431.887c-4.672,0-4.395,3.451-5.682,4.102c-2.03,1.026-3.331,0-3.331,0
								s-2.146,7.313,0.361,13.011h17.68c2.045-5.993-0.275-13.011-0.275-13.011s-0.999,0.8-2.877,0
								C634.502,435.191,636.04,431.887,630.5,431.887z"/>
							<g>
								<path style="fill:#1F160F;" d="M635.128,438.694c-0.017,0-0.033-0.002-0.05-0.005c-0.031-0.006-3.186-0.536-7.918-0.157
									c-0.152,0.003-0.304-0.108-0.317-0.271c-0.013-0.162,0.108-0.304,0.271-0.317c4.816-0.383,8.033,0.16,8.064,0.165
									c0.161,0.027,0.268,0.18,0.24,0.34C635.394,438.593,635.269,438.694,635.128,438.694z"/>
								<path style="fill:#1F160F;" d="M635.128,440.888c-0.017,0-0.033-0.002-0.05-0.005c-0.031-0.005-3.18-0.536-7.918-0.157
									c-0.152,0.002-0.304-0.108-0.317-0.27c-0.013-0.162,0.108-0.304,0.271-0.317c4.815-0.387,8.032,0.159,8.065,0.165
									c0.16,0.027,0.268,0.18,0.239,0.34C635.394,440.786,635.269,440.888,635.128,440.888z"/>
							</g>
							<path style="fill:#496099;" d="M621.149,446.938c0.177,0.7,0.403,1.393,0.697,2.062h17.68c0.231-0.678,0.4-1.369,0.529-2.062
								H621.149z"/>
						</g>
					</g>
					<g>
						<path style="fill:#496099;" d="M570.642,287.517h61.083c2.621,10.6,0.287,21.344,0.794,29.039
							c0.507,7.695,7.007,109.821,7.007,109.821c-6.302,2.649-23.995,0.677-23.995,0.677l-14.25-94.559l-7.029,32.193l-5.495,61.06
							c-6.477,2.471-21.072-0.429-21.072-0.429c0.377-28.028-0.915-48.521-0.684-64.158
							C567.633,318.49,569.503,312.014,570.642,287.517z"/>
						<g>
							<path style="fill:#1F160F;" d="M601.281,332.789c-0.134,0-0.255-0.092-0.287-0.228c-0.07-0.302-7.122-30.265-7.666-37.613
								c-0.012-0.162,0.11-0.303,0.273-0.315c0.158,0.002,0.303,0.11,0.315,0.272c0.54,7.302,7.581,37.22,7.652,37.521
								c0.037,0.158-0.062,0.316-0.22,0.355C601.326,332.786,601.304,332.789,601.281,332.789z"/>
							<path style="fill:#1F160F;" d="M596.734,319.736c-0.692,0-1.35-0.195-1.967-0.586c-4.093-2.588-5.635-13.486-6.208-22.174
								c-0.011-0.162,0.112-0.303,0.274-0.314c0.193,0.001,0.303,0.113,0.313,0.274c0.809,12.263,2.86,19.772,5.935,21.715
								c0.924,0.584,1.919,0.654,3.047,0.207c0.147-0.064,0.321,0.015,0.382,0.165c0.061,0.151-0.014,0.322-0.165,0.382
								C597.791,319.626,597.253,319.736,596.734,319.736z"/>
							<path style="fill:#1F160F;" d="M627.657,306.338c-0.073,0-7.389-0.114-10.043-9.936c-0.043-0.157,0.051-0.319,0.207-0.361
								c0.16-0.042,0.319,0.051,0.361,0.207c2.532,9.37,9.192,9.5,9.475,9.5c0.163,0.001,0.295,0.133,0.294,0.295
								C627.951,306.206,627.819,306.338,627.657,306.338z"/>
							<path style="fill:#1F160F;" d="M623.81,364.189c-2.355,0-5.171-0.167-7.425-0.799c-0.157-0.044-0.248-0.206-0.204-0.362
								c0.043-0.157,0.204-0.252,0.362-0.204c4.598,1.287,11.869,0.573,11.943,0.565c0.155-0.017,0.306,0.102,0.322,0.264
								c0.017,0.161-0.102,0.306-0.264,0.322C628.388,363.99,626.371,364.189,623.81,364.189z"/>
							<path style="fill:#1F160F;" d="M586.872,363.426c-1.768,0-5.063-0.13-7.741-0.976c-0.155-0.05-0.241-0.215-0.192-0.37
								c0.049-0.154,0.215-0.239,0.37-0.192c3.675,1.162,8.738,0.928,8.789,0.925c0.155-0.01,0.3,0.117,0.309,0.279
								c0.008,0.162-0.117,0.301-0.279,0.309C588.065,363.403,587.598,363.426,586.872,363.426z"/>
						</g>
						<path style="fill:#1F160F;" d="M632.864,295.186c-0.165-2.535-0.504-5.106-1.138-7.669h-61.083
							c-0.106,2.29-0.219,4.423-0.337,6.443C583.893,297.848,617.257,299.077,632.864,295.186z"/>
					</g>
				</g>
				<g>
					<polygon style="fill:#EBA38D;" points="588.895,198.332 608.101,198.725 608.101,179.742 588.895,179.742 					"/>
					<g>
						<path style="fill:#1F160F;" d="M585.325,145.437c0,0,15.628-13.199,19.158-12.469c3.725,0.77,17.85,9.851,20.7,15.632
							c2.849,5.78-4.987,16.161-4.987,16.161L585.325,145.437z"/>
						<path style="fill:#FFFFFF;" d="M595.808,137.327c-5.142,3.602-10.483,8.11-10.483,8.11l34.871,19.324
							c0,0,2.199-2.929,3.845-6.535C618.322,149.923,607.492,141.256,595.808,137.327z"/>
						
							<ellipse transform="matrix(0.5747 -0.8184 0.8184 0.5747 127.945 558.5074)" style="fill:#1F160F;" cx="601.324" cy="156.155" rx="11.732" ry="26.802"/>
						<path style="fill:#662F0C;" d="M583.091,162.773c-2.106-0.492-5.229-1.3-5.105-3.23c0.142-2.204-2.064-0.836-1.72-2.841
							c0.734-4.273,2.609-7.047,6.609-9.046c12.95-2.672,20.994,2.768,27.124,8.156c3.717,3.267,8.345,10.359,1.98,18.919
							l-29.399,0.582C581.828,171.258,583.946,166.164,583.091,162.773z"/>
						<path style="fill:#EBA38D;" d="M580.711,170.856c0.249,14.274,2.579,19.57,12.555,19.395
							c9.966-0.174,17.296-5.638,17.047-19.912c-0.249-14.264-9.539-18.904-15.133-18.806
							C589.575,151.631,580.462,156.593,580.711,170.856z"/>
						<g>
							<path style="fill:#EBA38D;" d="M616.431,169.372c-0.617-4.636-3.855-5.831-7.189-2.257l0.181,10.363
								C613.652,180.86,617.048,174.009,616.431,169.372z"/>
							<path style="fill:#1F160F;" d="M614.837,169.807c-0.127,0-0.243-0.082-0.282-0.209c-0.273-0.909-0.767-1.444-1.427-1.548
								c-0.752-0.124-1.61,0.346-2.192,1.186c-0.093,0.134-0.274,0.168-0.41,0.075c-0.134-0.093-0.167-0.276-0.074-0.41
								c0.71-1.025,1.804-1.586,2.768-1.433c0.886,0.14,1.561,0.836,1.899,1.96c0.047,0.156-0.042,0.32-0.197,0.367
								C614.894,169.803,614.865,169.807,614.837,169.807z"/>
						</g>
						<g>
							<path style="fill:#1F160F;" d="M591.942,181.702c-0.734,0-1.5-0.084-2.279-0.255c-0.158-0.035-0.259-0.192-0.225-0.351
								c0.034-0.159,0.188-0.261,0.352-0.225c2.322,0.51,4.501,0.206,5.979-0.831c0.131-0.093,0.316-0.061,0.41,0.072
								c0.093,0.133,0.062,0.317-0.072,0.411C595.001,181.3,593.548,181.702,591.942,181.702z"/>
							<path style="fill:#1F160F;" d="M592.201,177.477c-0.465,0-0.961-0.163-1.435-0.48c-0.505-0.338-1.007-0.895-0.989-1.376
								c0.009-0.252,0.15-0.628,0.364-1.196c0.398-1.057,1.002-2.655,0.974-4.248c-0.002-0.163,0.127-0.296,0.29-0.299
								c0.154-0.018,0.297,0.126,0.3,0.29c0.029,1.706-0.598,3.367-1.012,4.466c-0.166,0.438-0.322,0.852-0.328,1.008
								c-0.005,0.151,0.252,0.546,0.729,0.866c0.269,0.18,0.965,0.567,1.613,0.275c0.148-0.067,0.322-0.002,0.391,0.147
								c0.067,0.148,0.001,0.323-0.146,0.39C592.718,177.425,592.465,177.477,592.201,177.477z"/>
							<path style="fill:#1F160F;" d="M585.82,168.999c0.015,0.884,0.506,1.592,1.095,1.582c0.589-0.01,1.054-0.735,1.039-1.619
								c-0.016-0.884-0.506-1.592-1.095-1.582C586.269,167.39,585.804,168.115,585.82,168.999z"/>
							<path style="fill:#1F160F;" d="M584.177,166.381c-0.319,0-0.628-0.174-0.785-0.477c-0.225-0.433-0.056-0.966,0.377-1.191
								c1.574-0.817,3.001-0.989,4.924-0.592c0.477,0.099,0.785,0.566,0.687,1.044c-0.099,0.479-0.564,0.785-1.044,0.687
								c-1.748-0.362-2.701-0.116-3.752,0.43C584.453,166.349,584.313,166.381,584.177,166.381z"/>
							<path style="fill:#1F160F;" d="M597.959,168.743c0.015,0.884-0.45,1.609-1.039,1.619c-0.589,0.01-1.079-0.698-1.095-1.582
								c-0.015-0.884,0.45-1.609,1.039-1.619C597.453,167.151,597.943,167.859,597.959,168.743z"/>
							<path style="fill:#1F160F;" d="M599.598,166.032c-0.156,0-0.314-0.041-0.458-0.129c-1.06-0.644-2.057-0.921-4.273-0.532
								c-0.477,0.089-0.938-0.236-1.023-0.717c-0.084-0.48,0.236-0.938,0.717-1.023c2.397-0.42,3.889-0.215,5.498,0.762
								c0.417,0.253,0.55,0.796,0.296,1.213C600.188,165.88,599.896,166.032,599.598,166.032z"/>
						</g>
						<path style="fill:#662F0C;" d="M595.125,150.125c15.656,0.632,14.935,13.71,14.842,16.286
							c-0.103,2.878-1.654,7.404-2.201,5.451c-2.644-9.435-6.227-8.111-7.594-14.85c-5.459,1.151-19.234,6.832-19.465,1.836
							C580.56,155.693,586.915,149.793,595.125,150.125z"/>
						<path style="fill:#662F0C;" d="M592.703,182.563c1.578,0,3.211,3.086,5.906,2.523s9.394-6.56,8.494-15.324l2.864-3.351
							l-0.322,11.235c-0.817,4.667-5.234,12.624-14.458,12.995c-10.5,0.422-12.516-4.078-13.679-9.951
							c3.147,6.483,7.556,6.025,8.407,5.489C590.766,185.642,591.531,182.563,592.703,182.563z"/>
					</g>
				</g>
				<g>
					<g>
						<path style="fill:#56545E;" d="M628.625,234.219l4.669,58.726c-30.141,3.786-64.026-1.114-64.026-1.114
							c1.371-44.458,1.12-58.094,1.12-58.094s-12.458,11.792-16.262,10.683c-9.112-2.656-17.688-16.035-19.994-30.496
							c-0.357-2.237,8.869-5.414,11.303-4.671c2.059,0.629,8.731,12.994,8.731,12.994c9.19-15.84,15.535-24.086,19.917-24.642
							c4.763-0.598,11.506-1.382,22.816-1.732c7.991-0.258,27.94-1.307,30.664,6.064C632.5,215.3,628.625,234.219,628.625,234.219z"
							/>
						<path style="fill:#FFFFFF;" d="M596.899,195.874c-4.023,0.125-7.46,0.305-10.444,0.511c-1.586,16.419,6.4,30.416,6.4,30.416
							c7.502-8.238,15.453-20.854,16.573-31.064C604.596,195.569,599.902,195.777,596.899,195.874z"/>
						<path style="fill:#EBA38D;" d="M588.895,196.228c0,4.522,1.597,7.373,7.121,7.373c5.524,0,12.085-2.237,12.085-7.831
							c0,0-6.128-0.24-10.401-0.24C593.428,195.53,588.895,196.228,588.895,196.228z"/>
					</g>
					<g>
						<path style="fill:#1F160F;" d="M570.352,237.122c-0.003,0-0.006,0-0.009,0c-0.163-0.005-0.29-0.141-0.285-0.303
							c0.177-5.858,1.278-21.626,1.289-21.784c0.012-0.162,0.162-0.282,0.314-0.273c0.162,0.012,0.284,0.152,0.273,0.314
							c-0.012,0.159-1.112,15.914-1.289,21.761C570.642,236.996,570.511,237.122,570.352,237.122z"/>
						<path style="fill:#1F160F;" d="M596.113,294.42c-0.146,0-0.273-0.109-0.292-0.258c-0.054-0.427-5.37-42.898-3.26-66.169
							c0.015-0.162,0.16-0.275,0.319-0.267c0.162,0.015,0.281,0.158,0.267,0.32c-2.104,23.208,3.204,65.616,3.258,66.042
							c0.021,0.161-0.094,0.309-0.255,0.329C596.138,294.419,596.125,294.42,596.113,294.42z"/>
						<path style="fill:#1F160F;" d="M557.438,228.68c-0.12,0-0.232-0.074-0.276-0.192c-0.011-0.029-1.078-2.893-3.239-6.073
							c-0.092-0.134-0.057-0.318,0.077-0.409c0.133-0.089,0.317-0.058,0.409,0.078c2.205,3.244,3.295,6.171,3.306,6.201
							c0.057,0.152-0.021,0.322-0.175,0.378C557.506,228.674,557.472,228.68,557.438,228.68z"/>
						<path style="fill:#1F160F;" d="M592.521,233.357c-0.059,0-0.117-0.017-0.168-0.052c-7.974-5.515-14.918-26.912-14.428-36.205
							c0.009-0.162,0.127-0.282,0.31-0.278c0.162,0.008,0.287,0.147,0.278,0.31c-0.479,9.092,6.221,29.904,13.973,35.545
							c1.986-2.063,20.196-21.354,21.589-36.352c0.015-0.161,0.15-0.272,0.32-0.266c0.162,0.015,0.281,0.159,0.266,0.321
							c-1.484,15.994-21.726,36.683-21.93,36.891C592.673,233.327,592.597,233.357,592.521,233.357z"/>
						<path style="fill:#1F160F;" d="M602.406,212.076c-0.077,0-0.154-0.03-0.213-0.09c-0.043-0.045-4.334-4.501-6.162-5.031
							c-1.483-0.423-6.492,2.67-8.304,3.898c-0.133,0.09-0.316,0.058-0.409-0.078c-0.091-0.135-0.056-0.318,0.079-0.409
							c0.69-0.468,6.802-4.561,8.798-3.977c1.979,0.573,6.243,5,6.424,5.188c0.112,0.118,0.108,0.304-0.009,0.417
							C602.553,212.048,602.479,212.076,602.406,212.076z"/>
					</g>
				</g>
			</g>
			<g>
				<g>
					
						<rect x="559.716" y="149.947" transform="matrix(0.9848 0.1736 -0.1736 0.9848 34.7642 -95.5383)" style="fill:#1F160F;" width="7.375" height="1.937"/>
					
						<rect x="567.018" y="149.595" transform="matrix(0.9848 0.1736 -0.1736 0.9848 34.9821 -96.3503)" style="fill:#1F160F;" width="2.25" height="4.313"/>
				</g>
				<g>
					
						<rect x="558.427" y="157.256" transform="matrix(0.9848 0.1736 -0.1736 0.9848 36.0136 -95.2033)" style="fill:#1F160F;" width="7.375" height="1.937"/>
					
						<rect x="565.729" y="156.904" transform="matrix(0.9848 0.1736 -0.1736 0.9848 36.2317 -96.0155)" style="fill:#1F160F;" width="2.25" height="4.313"/>
				</g>
				<g>
					
						<rect x="546.75" y="147.66" transform="matrix(-0.9848 -0.1737 0.1737 -0.9848 1066.7019 390.5867)" style="fill:#1F160F;" width="7.375" height="1.938"/>
					
						<rect x="544.573" y="145.637" transform="matrix(-0.9848 -0.1736 0.1736 -0.9848 1057.4423 388.1007)" style="fill:#1F160F;" width="2.25" height="4.313"/>
				</g>
				<g>
					
						<rect x="545.461" y="154.969" transform="matrix(-0.9848 -0.1737 0.1737 -0.9848 1062.8746 404.8698)" style="fill:#1F160F;" width="7.375" height="1.937"/>
					
						<rect x="543.284" y="152.946" transform="matrix(-0.9848 -0.1736 0.1736 -0.9848 1053.6158 402.3825)" style="fill:#1F160F;" width="2.25" height="4.313"/>
				</g>
				<path style="fill:#1F160F;" d="M512.705,424.035c-30.243-5.333-53.917-23.102-45.683-55.981
					c3.13-12.511,16.424-19.949,11.966-37.975c5.87,5.291,15.306,4.413,19.263,0.747c6.101-5.633,9.462-16.458,9.023-21.057
					c-0.444-4.679-6.223-13.717-15.461-10.735c6.899-8.605,2.777-14.139,3.913-20.579c5.017-28.452,27.843-31.156,50.073-42.111
					c17.133,17.896,37.667,28.245,32.65,56.698c-1.135,6.44-6.911,10.229-3.371,20.674c-7.661-5.961-16.182,0.555-18.2,4.8
					c-1.985,4.172-2.529,15.493,1.278,22.873c2.464,4.798,11.04,8.852,18.366,5.888c-10.354,15.414-0.416,26.949-1.744,39.777
					C571.262,420.766,542.948,429.368,512.705,424.035z"/>
				<g>
					<polygon style="fill:#1F160F;" points="576.523,347.277 572.38,347.277 567.906,351 573.531,350.297 					"/>
					<polygon style="fill:#1F160F;" points="570.936,313.715 575.079,313.715 571.219,310.219 568.406,310.781 					"/>
					<polygon style="fill:#1F160F;" points="487.67,299.033 491.814,299.033 495.312,296.688 491.219,296.188 					"/>
					<polygon style="fill:#1F160F;" points="478.988,330.079 474.844,330.079 480.531,335.938 480,332.219 					"/>
				</g>
				<path style="fill:#E59545;" d="M508.561,424.035c-30.243-5.333-53.917-23.102-45.683-55.981
					c3.13-12.511,16.424-19.949,11.966-37.975c5.87,5.291,15.306,4.413,19.263,0.747c6.101-5.633,9.462-16.458,9.023-21.057
					c-0.444-4.679-6.223-13.717-15.461-10.735c6.899-8.605,2.777-14.139,3.913-20.579c5.017-28.452,27.843-31.156,50.073-42.111
					c17.133,17.896,37.667,28.245,32.651,56.698c-1.135,6.44-6.911,10.229-3.371,20.674c-7.661-5.961-16.182,0.555-18.2,4.8
					c-1.985,4.172-2.529,15.493,1.278,22.873c2.464,4.798,11.04,8.852,18.366,5.888c-10.354,15.414-0.416,26.949-1.744,39.777
					C567.119,420.766,538.805,429.368,508.561,424.035z"/>
				<polygon style="fill:#BF4E32;" points="537.108,325.597 515.403,321.77 548.127,163.244 560.576,165.439 				"/>
				
					<rect x="505.764" y="352.954" transform="matrix(0.9848 0.1737 -0.1737 0.9848 69.5278 -85.0399)" style="fill:#BF4E32;" width="30" height="3.75"/>
				<path style="fill:#1F160F;" d="M504.159,449.295c-0.017,0-0.034-0.002-0.051-0.005c-0.16-0.028-0.268-0.181-0.239-0.341
					l4.402-24.965c0.028-0.161,0.182-0.268,0.341-0.239c0.16,0.028,0.268,0.181,0.239,0.341l-4.402,24.965
					C504.424,449.194,504.3,449.295,504.159,449.295z"/>
				<path style="fill:#BF4E32;" d="M564.96,148.207c-3.976-4.985-3.186-12.706-3.186-12.706l-2.267-0.4l-2.267-0.4
					c0,0-1.898,7.526-7.339,10.85l-4.467,14.761c0,0,2.509,0.125,2.693,2.931l12.449,2.195c1.133-2.574,3.533-1.833,3.533-1.833
					L564.96,148.207z"/>
				<polygon style="fill:#BF4E32;" points="510.406,426.407 506.015,425.633 505.839,387.883 523.483,390.994 				"/>
				<g>
					<polygon style="fill:#FFFFFF;" points="509.986,390.752 509.74,390.709 551.077,156.278 551.323,156.321 					"/>
					<polygon style="fill:#FFFFFF;" points="512.941,391.272 512.695,391.229 555.32,149.49 555.566,149.533 					"/>
					<polygon style="fill:#FFFFFF;" points="515.896,391.794 515.649,391.751 558.274,150.011 558.521,150.054 					"/>
					<polygon style="fill:#FFFFFF;" points="518.85,392.315 518.603,392.272 559.94,157.841 560.186,157.884 					"/>
				</g>
				<g>
					<path style="fill:#FFFFFF;" d="M519.609,392.449c0.086-0.487-0.239-0.952-0.727-1.038c-0.487-0.086-0.952,0.239-1.038,0.727
						c-0.086,0.487,0.239,0.952,0.727,1.038S519.523,392.936,519.609,392.449z"/>
					<path style="fill:#FFFFFF;" d="M516.655,391.928c0.086-0.487-0.239-0.952-0.727-1.038c-0.487-0.086-0.952,0.239-1.038,0.727
						c-0.086,0.487,0.239,0.952,0.727,1.038C516.104,392.74,516.569,392.415,516.655,391.928z"/>
					<path style="fill:#FFFFFF;" d="M513.7,391.407c0.086-0.487-0.239-0.952-0.727-1.038c-0.487-0.086-0.952,0.239-1.038,0.726
						c-0.086,0.487,0.239,0.952,0.726,1.038C513.15,392.219,513.614,391.894,513.7,391.407z"/>
					<path style="fill:#FFFFFF;" d="M510.746,390.886c0.086-0.487-0.239-0.952-0.726-1.038c-0.487-0.086-0.952,0.239-1.038,0.727
						c-0.086,0.487,0.239,0.952,0.727,1.038C510.195,391.698,510.66,391.373,510.746,390.886z"/>
				</g>
				<path style="fill:#BF4E32;" d="M546.404,383.518c-0.002,0-0.003,0-0.005,0c-4.473-0.044-7.965-2.27-9.58-6.107
					c-2.036-4.837-0.493-10.946,3.932-15.565c4.764-4.973,6.76-11.544,4.854-15.979c-1.299-3.023-4.183-4.62-8.341-4.62
					c-0.028,0-0.062-0.001-0.083,0c-0.275,0-0.499-0.223-0.5-0.497c-0.001-0.304,0.291-0.499,0.579-0.503
					c4.527,0,7.814,1.854,9.264,5.225c2.06,4.795-0.017,11.813-5.05,17.066c-4.149,4.331-5.614,10.018-3.732,14.486
					c1.453,3.452,4.612,5.454,8.668,5.494c0.276,0.003,0.498,0.228,0.495,0.505C546.901,383.297,546.679,383.518,546.404,383.518z"
					/>
				<path style="fill:#BF4E32;" d="M490.787,373.724c-1.268,0-2.587-0.232-3.923-0.704c-0.261-0.092-0.398-0.378-0.306-0.638
					c0.092-0.262,0.382-0.396,0.638-0.306c3.826,1.352,7.477,0.549,10.024-2.197c3.297-3.556,3.864-9.4,1.446-14.89
					c-2.933-6.658-2.483-13.963,1.093-17.765c2.53-2.689,6.282-3.298,10.567-1.713c0.26,0.096,0.392,0.383,0.296,0.642
					c-0.095,0.26-0.385,0.393-0.642,0.296c-3.941-1.454-7.224-0.949-9.494,1.461c-3.309,3.517-3.681,10.375-0.904,16.677
					c2.578,5.853,1.938,12.123-1.629,15.972C496.02,372.644,493.521,373.723,490.787,373.724z"/>
			</g>
			<g>
				<path style="fill:#EBA38D;" d="M564.854,277.475c-16.745,4.214-29.663,4.439-31.017,4.592c-1.02,0.115-1.158-1.017-0.535-1.328
					c0.584-0.292,6.936-1.321,6.936-1.321c-0.26-0.161-10.385,0.348-10.779,0.363c-1.271,0.048-1.416-1.759-0.324-2.007
					c0.921-0.209,9.969-1.444,9.969-1.444c-0.203-0.282-11.182,0.371-11.544,0.333c-1.147-0.123-1.096-1.958-0.284-2.092
					c0.992-0.163,10.99-1.316,10.99-1.316c-0.32-0.697-6.355-0.185-8.471-0.151c-1.367,0.022-1.726-1.973,0.016-2.2
					c3.618-0.471,14.617-1.374,14.663-3.219c0.034-1.359-4.111-2.261-5.982-2.471c-2.563-0.287-2.951-2.181-2.391-2.596
					c0,0,3.926-0.721,5.414-0.501c1.907,0.283,4.382,1.053,5.391,1.758c1.594,1.114,4.697,3.686,6.46,3.769
					c1.195,0.056,10.111-1.747,10.111-1.747L564.854,277.475z"/>
				<path style="fill:#1F160F;" d="M533.695,282.369c-0.594,0-0.919-0.368-1.019-0.708c-0.141-0.474,0.068-0.973,0.495-1.186
					c0.293-0.147,1.739-0.434,3.261-0.708c-1.491,0.057-3.563,0.146-6.431,0.283l-0.529,0.024c-0.811,0.042-1.273-0.549-1.35-1.139
					c-0.079-0.595,0.222-1.284,0.948-1.449c0.488-0.111,3.152-0.496,5.608-0.841c-1.544,0.061-3.198,0.141-4.411,0.198
					c-1.962,0.094-2.611,0.122-2.737,0.11c-0.764-0.081-1.124-0.748-1.142-1.372c-0.02-0.683,0.326-1.219,0.841-1.304
					c0.727-0.119,6.127-0.752,9.088-1.096c-1.405-0.021-3.323,0.077-4.477,0.132c-0.814,0.039-1.537,0.074-2.039,0.083
					c-0.91,0.022-1.41-0.654-1.457-1.29c-0.047-0.646,0.377-1.36,1.43-1.497c0.566-0.074,1.313-0.158,2.169-0.255
					c3.338-0.377,12.205-1.379,12.238-2.679c0.023-0.945-3.317-1.901-5.722-2.171c-1.749-0.196-2.603-1.121-2.818-1.922
					c-0.136-0.502-0.023-0.975,0.284-1.203c0.036-0.027,0.078-0.045,0.123-0.054c0.161-0.03,3.987-0.73,5.51-0.502
					c1.788,0.266,4.406,1.032,5.517,1.809c0.298,0.208,0.647,0.467,1.031,0.75c1.565,1.156,3.928,2.902,5.274,2.966
					c0.956,0.051,7.569-1.242,10.039-1.742c0.083-0.015,0.165,0.002,0.232,0.051c0.066,0.048,0.11,0.122,0.119,0.203l1.375,11.578
					c0.018,0.147-0.076,0.284-0.22,0.32c-14.555,3.663-26.138,4.313-29.943,4.527c-0.56,0.031-0.935,0.052-1.112,0.072
					C533.81,282.366,533.751,282.369,533.695,282.369z M539.542,279.095c0.734,0,0.795,0.037,0.851,0.071
					c0.104,0.065,0.158,0.188,0.135,0.309c-0.024,0.12-0.12,0.214-0.242,0.233c-2.438,0.395-6.454,1.095-6.851,1.294
					c-0.192,0.096-0.243,0.325-0.194,0.491c0.063,0.212,0.267,0.319,0.563,0.28c0.183-0.021,0.57-0.042,1.146-0.074
					c3.771-0.212,15.199-0.853,29.581-4.447l-1.307-11.004c-1.619,0.325-8.785,1.759-9.87,1.69c-1.525-0.071-3.879-1.81-5.597-3.08
					c-0.38-0.28-0.726-0.535-1.019-0.741c-0.929-0.648-3.29-1.415-5.265-1.709c-1.309-0.194-4.65,0.38-5.232,0.484
					c-0.066,0.094-0.097,0.294-0.031,0.539c0.166,0.613,0.86,1.326,2.316,1.489c0.063,0.008,6.293,0.763,6.243,2.771
					c-0.037,1.524-4.514,2.318-12.76,3.25c-0.853,0.097-1.596,0.181-2.159,0.254c-0.717,0.094-0.944,0.511-0.919,0.87
					c0.027,0.372,0.325,0.744,0.844,0.744c0.006,0,0.011,0,0.017-0.001c0.498-0.008,1.214-0.042,2.021-0.081
					c4.514-0.22,6.441-0.21,6.723,0.403c0.039,0.086,0.035,0.185-0.011,0.268c-0.047,0.082-0.13,0.138-0.223,0.148
					c-0.101,0.011-10.003,1.154-10.977,1.315c-0.229,0.037-0.356,0.388-0.348,0.705c0.004,0.124,0.05,0.742,0.615,0.803
					c0.124,0.014,1.348-0.051,2.646-0.112c8.872-0.426,8.943-0.323,9.105-0.099c0.061,0.084,0.072,0.193,0.031,0.288
					c-0.041,0.095-0.128,0.161-0.23,0.176c-0.091,0.012-9.046,1.234-9.944,1.439c-0.4,0.091-0.538,0.478-0.496,0.799
					c0.041,0.307,0.247,0.627,0.706,0.627c0.012,0,0.024,0,0.038,0l0.523-0.025C535.971,279.175,538.472,279.095,539.542,279.095z"
					/>
				<path style="fill:#56545E;" d="M604.419,248.625c0,0-42.291,16.137-42.832,16.843c-0.542,0.705,2.597,14.27,3.107,14.804
					c0.509,0.534,38.927-6.549,50.626-12.084c6.582-3.114,12.616-26.237,13.306-33.969l-17.941-13.202
					C609.719,224.266,604.419,248.625,604.419,248.625z"/>
				<path style="fill:#1F160F;" d="M564.896,280.539c-0.232,0-0.374-0.021-0.415-0.064c-0.112-0.117-0.108-0.304,0.01-0.416
					c0.089-0.086,0.22-0.103,0.325-0.055c0.014,0.001,0.029,0.001,0.049,0.001c2.061,0,38.679-6.572,50.329-12.084
					c6.422-3.037,12.479-26.344,13.139-33.729c0.015-0.162,0.167-0.272,0.319-0.267c0.162,0.015,0.281,0.158,0.267,0.32
					c-0.624,7.006-6.57,30.943-13.473,34.209C604.941,273.423,569.212,280.539,564.896,280.539z"/>
				<path style="fill:#1F160F;" d="M569.456,262.456c-0.118,0-0.229-0.072-0.274-0.188c-0.059-0.151,0.017-0.322,0.168-0.381
					l34.816-13.48l7.528-33.172c0.036-0.158,0.19-0.258,0.353-0.222c0.158,0.036,0.258,0.194,0.222,0.352l-7.563,33.325
					c-0.021,0.096-0.09,0.174-0.181,0.21l-34.963,13.536C569.527,262.449,569.491,262.456,569.456,262.456z"/>
			</g>
			<g>
				<path style="fill:#EBA38D;" d="M534.595,212.834c0,0-1.227-15.191,0.776-17.638c2.003-2.447,13.13-7.452,14.657-6.947
					c2.409,0.797,0,3.188,0,3.188s1.739-0.25,2.074,1.5c0.335,1.75-3.188,2.736-3.188,2.736s1.883-0.345,1.773,1.233
					c-0.079,1.135-3.965,3.118-3.965,3.118s2.152-0.008,1.621,1.726c-0.295,0.962-9.11,4.578-9.11,4.578l-0.887,4.296
					C535.371,211.941,534.595,212.834,534.595,212.834z"/>
				<path style="fill:#1F160F;" d="M540.688,195.357c-0.11,0-0.216-0.062-0.267-0.168c-0.069-0.147-0.007-0.322,0.141-0.392
					c0.243-0.115,6.004-2.835,9.399-3.646c0.164-0.038,0.317,0.061,0.354,0.218c0.038,0.158-0.06,0.317-0.218,0.355
					c-3.334,0.796-9.224,3.577-9.283,3.604C540.772,195.348,540.729,195.357,540.688,195.357z"/>
				<path style="fill:#1F160F;" d="M541.438,198.294c-0.116,0-0.227-0.069-0.273-0.184c-0.061-0.151,0.012-0.322,0.163-0.383
					c0.026-0.011,2.698-1.084,7.513-2.339c0.156-0.042,0.317,0.054,0.359,0.211c0.041,0.157-0.054,0.318-0.211,0.359
					c-4.773,1.244-7.414,2.304-7.44,2.314C541.512,198.288,541.475,198.294,541.438,198.294z"/>
				<path style="fill:#1F160F;" d="M541.438,201.544c-0.121,0-0.234-0.075-0.277-0.196c-0.055-0.153,0.025-0.322,0.179-0.376
					c0.08-0.029,2.001-0.703,5.337-1.239c0.159-0.031,0.312,0.083,0.338,0.244c0.025,0.161-0.084,0.312-0.244,0.337
					c-3.277,0.527-5.215,1.206-5.233,1.213C541.503,201.539,541.47,201.544,541.438,201.544z"/>
			</g>
		</g>
	</g>
</g>
</svg>
